<?xml version="1.0" standalone="no"?><!-- Generator: Gravit.io --><svg xmlns="http://www.w3.org/2000/svg" xmlns:xlink="http://www.w3.org/1999/xlink" style="isolation:isolate" viewBox="0 0 100 50" width="100" height="50"><defs><clipPath id="_clipPath_axCgduPvcCbBMWcdpDNXf6VVbVcqsjEh"><rect width="100" height="50"/></clipPath></defs><g clip-path="url(#_clipPath_axCgduPvcCbBMWcdpDNXf6VVbVcqsjEh)"><rect x="0" y="0" width="100" height="50" transform="matrix(1,0,0,1,0,0)" fill="rgb(75,132,223)"/><path d=" M 70.347 31.988 L 67.863 21.468 L 67.863 28.379 L 67.863 28.379 Q 67.863 29.135 68.007 29.378 L 68.007 29.378 L 68.007 29.378 Q 68.151 29.621 68.565 29.684 L 68.565 29.684 L 68.565 31.988 L 64.596 31.988 L 64.596 29.684 L 64.596 29.684 Q 64.983 29.684 65.159 29.392 L 65.159 29.392 L 65.159 29.392 Q 65.334 29.099 65.334 28.469 L 65.334 28.469 L 65.334 21.873 L 65.334 21.873 Q 65.334 21.216 65.168 20.919 L 65.168 20.919 L 65.168 20.919 Q 65.001 20.622 64.596 20.523 L 64.596 20.523 L 64.596 18.291 L 69.465 18.291 L 71.238 26.093 L 72.93 18.291 L 77.87 18.291 L 77.87 20.523 L 77.87 20.523 Q 77.447 20.631 77.29 20.865 L 77.29 20.865 L 77.29 20.865 Q 77.132 21.099 77.132 21.927 L 77.132 21.927 L 77.132 28.136 L 77.132 28.136 Q 77.132 29.045 77.29 29.333 L 77.29 29.333 L 77.29 29.333 Q 77.447 29.621 77.87 29.684 L 77.87 29.684 L 77.87 31.988 L 73.371 31.988 L 73.371 29.684 L 73.371 29.684 Q 73.758 29.612 73.906 29.315 L 73.906 29.315 L 73.906 29.315 Q 74.055 29.018 74.055 28.136 L 74.055 28.136 L 74.055 21.684 L 71.643 31.988 L 70.347 31.988 Z  M 82.496 25.481 L 82.496 25.481 L 82.496 25.76 L 84.926 25.76 L 84.926 25.355 L 84.926 25.355 Q 84.926 24.546 84.629 24.168 L 84.629 24.168 L 84.629 24.168 Q 84.332 23.79 83.711 23.79 L 83.711 23.79 L 83.711 23.79 Q 83.072 23.79 82.784 24.19 L 82.784 24.19 L 82.784 24.19 Q 82.496 24.591 82.496 25.481 Z  M 82.496 27.542 L 82.496 28.415 L 82.496 28.415 Q 82.496 29.315 82.78 29.702 L 82.78 29.702 L 82.78 29.702 Q 83.063 30.089 83.711 30.089 L 83.711 30.089 L 83.711 30.089 Q 84.314 30.089 84.62 29.729 L 84.62 29.729 L 84.62 29.729 Q 84.926 29.369 84.926 28.649 L 84.926 28.649 L 84.926 28.595 L 87.707 28.595 L 87.707 30.989 L 87.707 30.989 Q 86.843 31.556 85.817 31.853 L 85.817 31.853 L 85.817 31.853 Q 84.791 32.15 83.711 32.15 L 83.711 32.15 L 83.711 32.15 Q 81.578 32.15 80.615 31.309 L 80.615 31.309 L 80.615 31.309 Q 79.652 30.467 79.652 28.577 L 79.652 28.577 L 79.652 25.337 L 79.652 25.337 Q 79.652 23.439 80.62 22.588 L 80.62 22.588 L 80.62 22.588 Q 81.587 21.738 83.711 21.738 L 83.711 21.738 L 83.711 21.738 Q 85.799 21.738 86.753 22.597 L 86.753 22.597 L 86.753 22.597 Q 87.707 23.457 87.707 25.337 L 87.707 25.337 L 87.707 27.542 L 82.496 27.542 Z  M 14.253 31.988 L 10.051 31.988 L 10.051 29.684 L 10.051 29.684 Q 10.375 29.585 10.55 29.311 L 10.55 29.311 L 10.55 29.311 Q 10.726 29.036 10.879 28.244 L 10.879 28.244 L 12.813 18.291 L 17.52 18.291 L 19.653 28.469 L 19.653 28.469 Q 19.788 29.09 19.959 29.338 L 19.959 29.338 L 19.959 29.338 Q 20.13 29.585 20.445 29.684 L 20.445 29.684 L 20.445 31.988 L 15.783 31.988 L 15.783 29.684 L 15.783 29.684 Q 16.098 29.657 16.283 29.486 L 16.283 29.486 L 16.283 29.486 Q 16.467 29.315 16.467 29.036 L 16.467 29.036 L 16.467 29.036 Q 16.467 28.964 16.458 28.861 L 16.458 28.861 L 16.458 28.861 Q 16.449 28.757 16.431 28.64 L 16.431 28.64 L 16.314 28.064 L 13.668 28.064 L 13.551 28.586 L 13.551 28.586 Q 13.533 28.73 13.524 28.825 L 13.524 28.825 L 13.524 28.825 Q 13.515 28.919 13.515 29 L 13.515 29 L 13.515 29 Q 13.515 29.342 13.691 29.504 L 13.691 29.504 L 13.691 29.504 Q 13.866 29.666 14.253 29.684 L 14.253 29.684 L 14.253 31.988 Z  M 14.937 20.874 L 14.01 26.111 L 15.873 26.111 L 14.937 20.874 Z  M 24.765 24.411 L 24.765 29.54 L 24.765 29.54 Q 25.026 29.747 25.372 29.864 L 25.372 29.864 L 25.372 29.864 Q 25.719 29.981 26.088 29.981 L 26.088 29.981 L 26.088 29.981 Q 26.826 29.981 27.15 29.558 L 27.15 29.558 L 27.15 29.558 Q 27.474 29.135 27.474 28.136 L 27.474 28.136 L 27.474 25.76 L 27.474 25.76 Q 27.474 24.807 27.145 24.379 L 27.145 24.379 L 27.145 24.379 Q 26.817 23.952 26.088 23.952 L 26.088 23.952 L 26.088 23.952 Q 25.764 23.952 25.431 24.069 L 25.431 24.069 L 25.431 24.069 Q 25.098 24.186 24.765 24.411 L 24.765 24.411 Z  M 21.867 30.863 L 21.867 30.863 L 21.867 21.558 L 21.867 21.558 Q 21.867 20.928 21.732 20.694 L 21.732 20.694 L 21.732 20.694 Q 21.597 20.46 21.246 20.307 L 21.246 20.307 L 21.246 18.291 L 24.765 18.291 L 24.765 22.476 L 24.765 22.476 Q 25.359 22.134 25.975 21.954 L 25.975 21.954 L 25.975 21.954 Q 26.592 21.774 27.195 21.774 L 27.195 21.774 L 27.195 21.774 Q 28.85 21.774 29.615 22.615 L 29.615 22.615 L 29.615 22.615 Q 30.38 23.457 30.38 25.283 L 30.38 25.283 L 30.38 28.334 L 30.38 28.334 Q 30.38 30.26 29.318 31.205 L 29.318 31.205 L 29.318 31.205 Q 28.256 32.15 26.088 32.15 L 26.088 32.15 L 26.088 32.15 Q 25.053 32.15 23.991 31.826 L 23.991 31.826 L 23.991 31.826 Q 22.929 31.502 21.867 30.863 Z  M 37.391 28.415 L 37.391 25.481 L 37.391 25.481 Q 37.391 24.573 37.121 24.181 L 37.121 24.181 L 37.121 24.181 Q 36.851 23.79 36.248 23.79 L 36.248 23.79 L 36.248 23.79 Q 35.636 23.79 35.362 24.186 L 35.362 24.186 L 35.362 24.186 Q 35.087 24.582 35.087 25.481 L 35.087 25.481 L 35.087 28.415 L 35.087 28.415 Q 35.087 29.315 35.357 29.702 L 35.357 29.702 L 35.357 29.702 Q 35.627 30.089 36.248 30.089 L 36.248 30.089 L 36.248 30.089 Q 36.851 30.089 37.121 29.702 L 37.121 29.702 L 37.121 29.702 Q 37.391 29.315 37.391 28.415 L 37.391 28.415 Z  M 40.28 25.337 L 40.28 25.337 L 40.28 28.577 L 40.28 28.577 Q 40.28 30.467 39.326 31.309 L 39.326 31.309 L 39.326 31.309 Q 38.372 32.15 36.248 32.15 L 36.248 32.15 L 36.248 32.15 Q 34.115 32.15 33.152 31.309 L 33.152 31.309 L 33.152 31.309 Q 32.189 30.467 32.189 28.577 L 32.189 28.577 L 32.189 25.337 L 32.189 25.337 Q 32.189 23.439 33.157 22.588 L 33.157 22.588 L 33.157 22.588 Q 34.124 21.738 36.248 21.738 L 36.248 21.738 L 36.248 21.738 Q 38.372 21.738 39.326 22.588 L 39.326 22.588 L 39.326 22.588 Q 40.28 23.439 40.28 25.337 Z  M 47.119 21.927 L 50.548 21.927 L 50.548 28.667 L 50.548 28.667 Q 50.548 29.405 50.683 29.63 L 50.683 29.63 L 50.683 29.63 Q 50.818 29.855 51.178 29.981 L 51.178 29.981 L 51.178 31.988 L 47.749 31.988 L 47.749 31.34 L 47.749 31.34 Q 47.155 31.691 46.584 31.867 L 46.584 31.867 L 46.584 31.867 Q 46.012 32.042 45.481 32.042 L 45.481 32.042 L 45.481 32.042 Q 43.853 32.042 43.155 31.241 L 43.155 31.241 L 43.155 31.241 Q 42.458 30.44 42.458 28.487 L 42.458 28.487 L 42.458 25.427 L 42.458 25.427 Q 42.458 24.654 42.354 24.348 L 42.354 24.348 L 42.354 24.348 Q 42.251 24.042 41.999 23.97 L 41.999 23.97 L 41.999 21.927 L 44.986 21.927 L 44.986 21.927 Q 45.148 22.35 45.216 22.971 L 45.216 22.971 L 45.216 22.971 Q 45.283 23.592 45.283 24.951 L 45.283 24.951 L 45.283 28.118 L 45.283 28.118 Q 45.283 29.108 45.576 29.545 L 45.576 29.545 L 45.576 29.545 Q 45.868 29.981 46.516 29.981 L 46.516 29.981 L 46.516 29.981 Q 46.813 29.981 47.119 29.855 L 47.119 29.855 L 47.119 29.855 Q 47.425 29.729 47.749 29.477 L 47.749 29.477 L 47.749 25.337 L 47.749 25.337 Q 47.749 24.573 47.619 24.316 L 47.619 24.316 L 47.619 24.316 Q 47.488 24.06 47.119 23.97 L 47.119 23.97 L 47.119 21.927 Z  M 53.275 20.064 L 56.101 19.2 L 56.101 21.927 L 57.298 21.927 L 57.298 24.141 L 56.101 24.141 L 56.101 28.082 L 56.101 28.082 Q 56.101 29.153 56.33 29.531 L 56.33 29.531 L 56.33 29.531 Q 56.56 29.909 57.163 29.909 L 57.163 29.909 L 57.298 29.909 L 57.298 31.952 L 57.298 31.952 Q 56.929 32.06 56.591 32.114 L 56.591 32.114 L 56.591 32.114 Q 56.254 32.168 55.966 32.168 L 55.966 32.168 L 55.966 32.168 Q 54.517 32.168 53.896 31.345 L 53.896 31.345 L 53.896 31.345 Q 53.275 30.521 53.275 28.298 L 53.275 28.298 L 53.275 24.141 L 52.762 24.141 L 52.762 21.927 L 53.275 21.927 L 53.275 20.064 Z " fill-rule="evenodd" fill="rgb(0,0,0)"/><line x1="0" y1="8.5" x2="0" y2="41.5" vector-effect="non-scaling-stroke" stroke-width="1" stroke="rgb(0,0,0)" stroke-linejoin="round" stroke-linecap="round" stroke-miterlimit="3"/><line x1="100" y1="8.5" x2="100" y2="41.5" vector-effect="non-scaling-stroke" stroke-width="1" stroke="rgb(0,0,0)" stroke-linejoin="round" stroke-linecap="round" stroke-miterlimit="3"/></g></svg>