<?xml version="1.0" standalone="no"?><!-- Generator: Gravit.io --><svg xmlns="http://www.w3.org/2000/svg" xmlns:xlink="http://www.w3.org/1999/xlink" style="isolation:isolate" viewBox="0 0 100 50" width="100" height="50"><path d=" M 34.602 20.928 L 34.602 23.709 L 35.825 23.709 L 35.825 23.709 Q 36.725 23.709 37.103 23.398 L 37.103 23.398 L 37.103 23.398 Q 37.481 23.088 37.481 22.386 L 37.481 22.386 L 37.481 22.386 Q 37.481 21.603 37.103 21.265 L 37.103 21.265 L 37.103 21.265 Q 36.725 20.928 35.825 20.928 L 35.825 20.928 L 34.602 20.928 L 34.602 20.928 Z  M 34.602 26.057 L 34.602 29.315 L 35.987 29.315 L 35.987 29.315 Q 36.905 29.315 37.306 28.937 L 37.306 28.937 L 37.306 28.937 Q 37.706 28.559 37.706 27.695 L 37.706 27.695 L 37.706 27.695 Q 37.706 26.831 37.283 26.444 L 37.283 26.444 L 37.283 26.444 Q 36.86 26.057 35.915 26.057 L 35.915 26.057 L 34.602 26.057 L 34.602 26.057 Z  M 36.176 31.988 L 30.732 31.988 L 30.732 29.684 L 30.732 29.684 Q 31.137 29.594 31.285 29.347 L 31.285 29.347 L 31.285 29.347 Q 31.434 29.099 31.434 28.262 L 31.434 28.262 L 31.434 21.927 L 31.434 21.927 Q 31.434 21.09 31.285 20.842 L 31.285 20.842 L 31.285 20.842 Q 31.137 20.595 30.732 20.505 L 30.732 20.505 L 30.732 18.291 L 36.005 18.291 L 36.005 18.291 Q 38.408 18.291 39.502 19.182 L 39.502 19.182 L 39.502 19.182 Q 40.595 20.073 40.595 22.017 L 40.595 22.017 L 40.595 22.017 Q 40.595 23.16 40.1 23.929 L 40.1 23.929 L 40.1 23.929 Q 39.605 24.699 38.678 25.004 L 38.678 25.004 L 38.678 25.004 Q 39.767 25.337 40.294 26.143 L 40.294 26.143 L 40.294 26.143 Q 40.82 26.948 40.82 28.28 L 40.82 28.28 L 40.82 28.28 Q 40.82 30.26 39.754 31.124 L 39.754 31.124 L 39.754 31.124 Q 38.687 31.988 36.176 31.988 L 36.176 31.988 L 36.176 31.988 Z  M 43.178 28.415 L 43.178 21.648 L 43.178 21.648 Q 43.178 20.955 43.048 20.725 L 43.048 20.725 L 43.048 20.725 Q 42.917 20.496 42.548 20.361 L 42.548 20.361 L 42.548 18.345 L 45.995 18.345 L 45.995 28.577 L 45.995 28.577 Q 45.995 29.369 46.125 29.612 L 46.125 29.612 L 46.125 29.612 Q 46.256 29.855 46.607 29.945 L 46.607 29.945 L 46.607 31.988 L 42.548 31.988 L 42.548 29.945 L 42.548 29.945 Q 42.899 29.891 43.039 29.581 L 43.039 29.581 L 43.039 29.581 Q 43.178 29.27 43.178 28.415 L 43.178 28.415 L 43.178 28.415 Z  M 53.482 28.415 L 53.482 25.481 L 53.482 25.481 Q 53.482 24.573 53.212 24.181 L 53.212 24.181 L 53.212 24.181 Q 52.942 23.79 52.339 23.79 L 52.339 23.79 L 52.339 23.79 Q 51.727 23.79 51.453 24.186 L 51.453 24.186 L 51.453 24.186 Q 51.178 24.582 51.178 25.481 L 51.178 25.481 L 51.178 28.415 L 51.178 28.415 Q 51.178 29.315 51.448 29.702 L 51.448 29.702 L 51.448 29.702 Q 51.718 30.089 52.339 30.089 L 52.339 30.089 L 52.339 30.089 Q 52.942 30.089 53.212 29.702 L 53.212 29.702 L 53.212 29.702 Q 53.482 29.315 53.482 28.415 L 53.482 28.415 L 53.482 28.415 Z  M 56.371 25.337 L 56.371 25.337 L 56.371 28.577 L 56.371 28.577 Q 56.371 30.467 55.417 31.309 L 55.417 31.309 L 55.417 31.309 Q 54.463 32.15 52.339 32.15 L 52.339 32.15 L 52.339 32.15 Q 50.207 32.15 49.244 31.309 L 49.244 31.309 L 49.244 31.309 Q 48.281 30.467 48.281 28.577 L 48.281 28.577 L 48.281 25.337 L 48.281 25.337 Q 48.281 23.439 49.248 22.588 L 49.248 22.588 L 49.248 22.588 Q 50.216 21.738 52.339 21.738 L 52.339 21.738 L 52.339 21.738 Q 54.463 21.738 55.417 22.588 L 55.417 22.588 L 55.417 22.588 Q 56.371 23.439 56.371 25.337 Z  M 63.661 29.369 L 63.661 29.369 L 63.661 24.411 L 63.661 24.411 Q 63.346 24.168 63.04 24.051 L 63.04 24.051 L 63.04 24.051 Q 62.734 23.934 62.401 23.934 L 62.401 23.934 L 62.401 23.934 Q 61.681 23.934 61.379 24.348 L 61.379 24.348 L 61.379 24.348 Q 61.078 24.762 61.078 25.796 L 61.078 25.796 L 61.078 27.713 L 61.078 27.713 Q 61.078 28.865 61.361 29.32 L 61.361 29.32 L 61.361 29.32 Q 61.645 29.774 62.311 29.774 L 62.311 29.774 L 62.311 29.774 Q 62.608 29.774 62.927 29.68 L 62.927 29.68 L 62.927 29.68 Q 63.247 29.585 63.661 29.369 Z  M 63.661 32.15 L 63.661 31.268 L 63.661 31.268 Q 62.968 31.619 62.351 31.786 L 62.351 31.786 L 62.351 31.786 Q 61.735 31.952 61.114 31.952 L 61.114 31.952 L 61.114 31.952 Q 60.268 31.952 59.647 31.66 L 59.647 31.66 L 59.647 31.66 Q 59.026 31.367 58.648 30.791 L 58.648 30.791 L 58.648 30.791 Q 58.396 30.404 58.288 29.891 L 58.288 29.891 L 58.288 29.891 Q 58.18 29.378 58.18 28.262 L 58.18 28.262 L 58.18 28.028 L 58.18 25.409 L 58.18 25.409 Q 58.18 23.502 58.887 22.647 L 58.887 22.647 L 58.887 22.647 Q 59.593 21.792 61.15 21.792 L 61.15 21.792 L 61.15 21.792 Q 61.753 21.792 62.374 21.981 L 62.374 21.981 L 62.374 21.981 Q 62.995 22.17 63.661 22.548 L 63.661 22.548 L 63.661 21.927 L 67.09 21.927 L 67.09 23.934 L 67.09 23.934 Q 66.739 24.051 66.608 24.262 L 66.608 24.262 L 66.608 24.262 Q 66.478 24.474 66.478 25.22 L 66.478 25.22 L 66.478 31.439 L 66.478 31.439 Q 66.478 32.69 66.338 33.293 L 66.338 33.293 L 66.338 33.293 Q 66.199 33.896 65.866 34.364 L 65.866 34.364 L 65.866 34.364 Q 65.371 35.048 64.543 35.399 L 64.543 35.399 L 64.543 35.399 Q 63.715 35.75 62.59 35.75 L 62.59 35.75 L 62.59 35.75 Q 61.519 35.75 60.533 35.498 L 60.533 35.498 L 60.533 35.498 Q 59.548 35.246 58.603 34.733 L 58.603 34.733 L 58.603 32.357 L 61.321 32.357 L 61.321 32.411 L 61.321 32.411 Q 61.321 33.005 61.627 33.333 L 61.627 33.333 L 61.627 33.333 Q 61.933 33.662 62.482 33.662 L 62.482 33.662 L 62.482 33.662 Q 63.094 33.662 63.377 33.306 L 63.377 33.306 L 63.377 33.306 Q 63.661 32.951 63.661 32.15 L 63.661 32.15 L 63.661 32.15 Z " fill-rule="evenodd" fill="rgb(0,0,0)"/></svg>