<?xml version="1.0" standalone="no"?><!-- Generator: Gravit.io --><svg xmlns="http://www.w3.org/2000/svg" xmlns:xlink="http://www.w3.org/1999/xlink" style="isolation:isolate" viewBox="0 0 100 50" width="100" height="50"><defs><clipPath id="_clipPath_097hFeph6sWppZH1f4W88mV4ImaBUobv"><rect width="100" height="50"/></clipPath></defs><g clip-path="url(#_clipPath_097hFeph6sWppZH1f4W88mV4ImaBUobv)"><path d=" M 20.702 27.38 L 20.702 22.899 L 20.702 22.899 Q 20.702 21.414 20.823 20.766 L 20.823 20.766 L 20.823 20.766 Q 20.945 20.118 21.233 19.641 L 21.233 19.641 L 21.233 19.641 Q 21.737 18.804 22.718 18.412 L 22.718 18.412 L 22.718 18.412 Q 23.698 18.021 25.309 18.021 L 25.309 18.021 L 25.309 18.021 Q 26.434 18.021 27.541 18.273 L 27.541 18.273 L 27.541 18.273 Q 28.648 18.525 29.728 19.029 L 29.728 19.029 L 29.728 22.899 L 26.74 22.899 L 26.74 22.629 L 26.74 22.629 Q 26.74 21.693 26.385 21.238 L 26.385 21.238 L 26.385 21.238 Q 26.029 20.784 25.309 20.784 L 25.309 20.784 L 25.309 20.784 Q 24.535 20.784 24.193 21.252 L 24.193 21.252 L 24.193 21.252 Q 23.851 21.72 23.851 22.791 L 23.851 22.791 L 23.851 27.488 L 23.851 27.488 Q 23.851 28.568 24.193 29.036 L 24.193 29.036 L 24.193 29.036 Q 24.535 29.504 25.309 29.504 L 25.309 29.504 L 25.309 29.504 Q 26.065 29.504 26.403 29.041 L 26.403 29.041 L 26.403 29.041 Q 26.74 28.577 26.74 27.488 L 26.74 27.488 L 26.74 26.516 L 29.728 26.516 L 29.728 31.214 L 29.728 31.214 Q 28.738 31.727 27.6 31.997 L 27.6 31.997 L 27.6 31.997 Q 26.461 32.267 25.309 32.267 L 25.309 32.267 L 25.309 32.267 Q 23.851 32.267 22.911 31.943 L 22.911 31.943 L 22.911 31.943 Q 21.971 31.619 21.431 30.935 L 21.431 30.935 L 21.431 30.935 Q 21.035 30.431 20.868 29.72 L 20.868 29.72 L 20.868 29.72 Q 20.702 29.009 20.702 27.38 L 20.702 27.38 L 20.702 27.38 Z  M 32.347 28.415 L 32.347 21.648 L 32.347 21.648 Q 32.347 20.955 32.216 20.725 L 32.216 20.725 L 32.216 20.725 Q 32.086 20.496 31.717 20.361 L 31.717 20.361 L 31.717 18.345 L 35.164 18.345 L 35.164 28.577 L 35.164 28.577 Q 35.164 29.369 35.294 29.612 L 35.294 29.612 L 35.294 29.612 Q 35.425 29.855 35.776 29.945 L 35.776 29.945 L 35.776 31.988 L 31.717 31.988 L 31.717 29.945 L 31.717 29.945 Q 32.068 29.891 32.207 29.581 L 32.207 29.581 L 32.207 29.581 Q 32.347 29.27 32.347 28.415 L 32.347 28.415 L 32.347 28.415 Z  M 37.711 19.821 L 37.711 19.821 L 37.711 19.821 Q 37.711 19.164 38.174 18.691 L 38.174 18.691 L 38.174 18.691 Q 38.638 18.219 39.295 18.219 L 39.295 18.219 L 39.295 18.219 Q 39.96 18.219 40.428 18.691 L 40.428 18.691 L 40.428 18.691 Q 40.896 19.164 40.896 19.821 L 40.896 19.821 L 40.896 19.821 Q 40.896 20.478 40.419 20.941 L 40.419 20.941 L 40.419 20.941 Q 39.942 21.405 39.295 21.405 L 39.295 21.405 L 39.295 21.405 Q 38.656 21.405 38.183 20.932 L 38.183 20.932 L 38.183 20.932 Q 37.711 20.46 37.711 19.821 Z  M 40.86 21.927 L 40.86 28.577 L 40.86 28.577 Q 40.86 29.369 40.991 29.612 L 40.991 29.612 L 40.991 29.612 Q 41.121 29.855 41.472 29.945 L 41.472 29.945 L 41.472 31.988 L 37.414 31.988 L 37.414 29.945 L 37.414 29.945 Q 37.765 29.891 37.904 29.581 L 37.904 29.581 L 37.904 29.581 Q 38.044 29.27 38.044 28.415 L 38.044 28.415 L 38.044 25.22 L 38.044 25.22 Q 38.044 24.528 37.913 24.298 L 37.913 24.298 L 37.913 24.298 Q 37.783 24.069 37.414 23.934 L 37.414 23.934 L 37.414 21.927 L 40.86 21.927 L 40.86 21.927 Z  M 51.039 25.67 L 48.42 25.67 L 48.42 25.355 L 48.42 25.355 Q 48.42 24.546 48.123 24.168 L 48.123 24.168 L 48.123 24.168 Q 47.826 23.79 47.205 23.79 L 47.205 23.79 L 47.205 23.79 Q 46.566 23.79 46.278 24.19 L 46.278 24.19 L 46.278 24.19 Q 45.99 24.591 45.99 25.481 L 45.99 25.481 L 45.99 28.415 L 45.99 28.415 Q 45.99 29.315 46.274 29.702 L 46.274 29.702 L 46.274 29.702 Q 46.557 30.089 47.205 30.089 L 47.205 30.089 L 47.205 30.089 Q 47.853 30.089 48.136 29.711 L 48.136 29.711 L 48.136 29.711 Q 48.42 29.333 48.42 28.415 L 48.42 28.415 L 48.42 27.821 L 51.039 27.821 L 51.039 31.07 L 51.039 31.07 Q 50.247 31.583 49.248 31.867 L 49.248 31.867 L 49.248 31.867 Q 48.249 32.15 47.205 32.15 L 47.205 32.15 L 47.205 32.15 Q 45.072 32.15 44.109 31.309 L 44.109 31.309 L 44.109 31.309 Q 43.146 30.467 43.146 28.577 L 43.146 28.577 L 43.146 25.337 L 43.146 25.337 Q 43.146 23.484 44.096 22.611 L 44.096 22.611 L 44.096 22.611 Q 45.045 21.738 47.061 21.738 L 47.061 21.738 L 47.061 21.738 Q 48.078 21.738 49.081 22.012 L 49.081 22.012 L 49.081 22.012 Q 50.085 22.287 51.039 22.827 L 51.039 22.827 L 51.039 25.67 L 51.039 25.67 Z  M 53.379 28.415 L 53.379 21.594 L 53.379 21.594 Q 53.379 20.901 53.248 20.671 L 53.248 20.671 L 53.248 20.671 Q 53.118 20.442 52.749 20.307 L 52.749 20.307 L 52.749 18.291 L 56.177 18.291 L 56.177 25.688 L 57.392 24.006 L 57.392 24.006 Q 57.608 23.718 57.703 23.412 L 57.703 23.412 L 57.703 23.412 Q 57.797 23.106 57.797 22.719 L 57.797 22.719 L 57.797 21.927 L 61.433 21.927 L 61.424 23.952 L 61.424 23.952 Q 61.118 24.015 60.839 24.186 L 60.839 24.186 L 60.839 24.186 Q 60.56 24.357 60.308 24.654 L 60.308 24.654 L 58.958 26.165 L 60.659 29.153 L 60.659 29.153 Q 60.848 29.495 61.087 29.68 L 61.087 29.68 L 61.087 29.68 Q 61.325 29.864 61.667 29.945 L 61.667 29.945 L 61.667 31.988 L 59.219 31.988 L 59.219 31.988 Q 58.967 31.754 58.747 31.462 L 58.747 31.462 L 58.747 31.462 Q 58.526 31.169 58.265 30.701 L 58.265 30.701 L 56.177 26.903 L 56.177 28.577 L 56.177 28.577 Q 56.177 29.333 56.308 29.581 L 56.308 29.581 L 56.308 29.581 Q 56.438 29.828 56.807 29.927 L 56.807 29.927 L 56.807 31.988 L 52.749 31.988 L 52.749 29.927 L 52.749 29.927 Q 53.1 29.873 53.239 29.572 L 53.239 29.572 L 53.239 29.572 Q 53.379 29.27 53.379 28.415 L 53.379 28.415 L 53.379 28.415 Z  M 65.708 25.481 L 65.708 25.481 L 65.708 25.76 L 68.138 25.76 L 68.138 25.355 L 68.138 25.355 Q 68.138 24.546 67.841 24.168 L 67.841 24.168 L 67.841 24.168 Q 67.544 23.79 66.923 23.79 L 66.923 23.79 L 66.923 23.79 Q 66.284 23.79 65.996 24.19 L 65.996 24.19 L 65.996 24.19 Q 65.708 24.591 65.708 25.481 Z  M 65.708 27.542 L 65.708 28.415 L 65.708 28.415 Q 65.708 29.315 65.991 29.702 L 65.991 29.702 L 65.991 29.702 Q 66.275 30.089 66.923 30.089 L 66.923 30.089 L 66.923 30.089 Q 67.526 30.089 67.832 29.729 L 67.832 29.729 L 67.832 29.729 Q 68.138 29.369 68.138 28.649 L 68.138 28.649 L 68.138 28.595 L 70.919 28.595 L 70.919 30.989 L 70.919 30.989 Q 70.055 31.556 69.029 31.853 L 69.029 31.853 L 69.029 31.853 Q 68.003 32.15 66.923 32.15 L 66.923 32.15 L 66.923 32.15 Q 64.79 32.15 63.827 31.309 L 63.827 31.309 L 63.827 31.309 Q 62.864 30.467 62.864 28.577 L 62.864 28.577 L 62.864 25.337 L 62.864 25.337 Q 62.864 23.439 63.831 22.588 L 63.831 22.588 L 63.831 22.588 Q 64.799 21.738 66.923 21.738 L 66.923 21.738 L 66.923 21.738 Q 69.011 21.738 69.965 22.597 L 69.965 22.597 L 69.965 22.597 Q 70.919 23.457 70.919 25.337 L 70.919 25.337 L 70.919 27.542 L 65.708 27.542 L 65.708 27.542 Z  M 75.949 26.813 L 75.949 28.577 L 75.949 28.577 Q 75.949 29.342 76.084 29.594 L 76.084 29.594 L 76.084 29.594 Q 76.219 29.846 76.579 29.945 L 76.579 29.945 L 76.579 31.988 L 72.52 31.988 L 72.52 29.945 L 72.52 29.945 Q 72.871 29.891 73.011 29.581 L 73.011 29.581 L 73.011 29.581 Q 73.15 29.27 73.15 28.415 L 73.15 28.415 L 73.15 25.22 L 73.15 25.22 Q 73.15 24.528 73.02 24.298 L 73.02 24.298 L 73.02 24.298 Q 72.889 24.069 72.52 23.934 L 72.52 23.934 L 72.52 21.927 L 75.823 21.927 L 75.823 22.755 L 75.823 22.755 Q 76.129 22.323 76.539 22.107 L 76.539 22.107 L 76.539 22.107 Q 76.948 21.891 77.443 21.891 L 77.443 21.891 L 77.443 21.891 Q 77.578 21.891 77.821 21.918 L 77.821 21.918 L 77.821 21.918 Q 77.848 21.927 77.866 21.927 L 77.866 21.927 L 77.866 24.87 L 77.866 24.87 Q 77.83 24.87 77.758 24.861 L 77.758 24.861 L 77.758 24.861 Q 77.506 24.834 77.407 24.834 L 77.407 24.834 L 77.407 24.834 Q 76.642 24.834 76.296 25.306 L 76.296 25.306 L 76.296 25.306 Q 75.949 25.778 75.949 26.813 L 75.949 26.813 L 75.949 26.813 Z " fill-rule="evenodd" fill="rgb(0,0,0)"/></g></svg>