<?xml version="1.0" standalone="no"?><!-- Generator: Gravit.io --><svg xmlns="http://www.w3.org/2000/svg" xmlns:xlink="http://www.w3.org/1999/xlink" style="isolation:isolate" viewBox="0 0 50 50" width="50" height="50"><defs><clipPath id="_clipPath_vReq5ZYXtL9FvXzIvs8dsCRFfPjTwET2"><rect width="50" height="50"/></clipPath></defs><g clip-path="url(#_clipPath_vReq5ZYXtL9FvXzIvs8dsCRFfPjTwET2)"><path d="M 13.187 22.375 L 36.813 22.375 C 38.986 22.375 40.75 23.551 40.75 25 L 40.75 25 C 40.75 26.449 38.986 27.625 36.813 27.625 L 13.187 27.625 C 11.014 27.625 9.25 26.449 9.25 25 L 9.25 25 C 9.25 23.551 11.014 22.375 13.187 22.375 Z" style="stroke:none;fill:#000000;stroke-miterlimit:10;"/><path d="M 13.187 33.75 L 36.813 33.75 C 38.986 33.75 40.75 34.926 40.75 36.375 L 40.75 36.375 C 40.75 37.824 38.986 39 36.813 39 L 13.187 39 C 11.014 39 9.25 37.824 9.25 36.375 L 9.25 36.375 C 9.25 34.926 11.014 33.75 13.187 33.75 Z" style="stroke:none;fill:#000000;stroke-miterlimit:10;"/><path d="M 13.187 11 L 36.813 11 C 38.986 11 40.75 12.176 40.75 13.625 L 40.75 13.625 C 40.75 15.074 38.986 16.25 36.813 16.25 L 13.187 16.25 C 11.014 16.25 9.25 15.074 9.25 13.625 L 9.25 13.625 C 9.25 12.176 11.014 11 13.187 11 Z" style="stroke:none;fill:#000000;stroke-miterlimit:10;"/></g></svg>