<?xml version="1.0" encoding="UTF-8" standalone="no"?>
<!-- Generator: Gravit.io -->

<svg
   xmlns:dc="http://purl.org/dc/elements/1.1/"
   xmlns:cc="http://creativecommons.org/ns#"
   xmlns:rdf="http://www.w3.org/1999/02/22-rdf-syntax-ns#"
   xmlns:svg="http://www.w3.org/2000/svg"
   xmlns="http://www.w3.org/2000/svg"
   xmlns:sodipodi="http://sodipodi.sourceforge.net/DTD/sodipodi-0.dtd"
   xmlns:inkscape="http://www.inkscape.org/namespaces/inkscape"
   style="isolation:isolate"
   viewBox="0 0 50 50"
   width="50"
   height="50"
   version="1.1"
   id="svg11"
   sodipodi:docname="GitHub.svg"
   inkscape:version="0.92.5 (2060ec1f9f, 2020-04-08)">
  <metadata
     id="metadata15">
    <rdf:RDF>
      <cc:Work
         rdf:about="">
        <dc:format>image/svg+xml</dc:format>
        <dc:type
           rdf:resource="http://purl.org/dc/dcmitype/StillImage" />
        <dc:title></dc:title>
      </cc:Work>
    </rdf:RDF>
  </metadata>
  <sodipodi:namedview
     pagecolor="#ffffff"
     bordercolor="#666666"
     borderopacity="1"
     objecttolerance="10"
     gridtolerance="10"
     guidetolerance="10"
     inkscape:pageopacity="0"
     inkscape:pageshadow="2"
     inkscape:window-width="830"
     inkscape:window-height="1052"
     id="namedview13"
     showgrid="false"
     inkscape:zoom="4.72"
     inkscape:cx="18.961864"
     inkscape:cy="25"
     inkscape:window-x="2"
     inkscape:window-y="22"
     inkscape:window-maximized="0"
     inkscape:current-layer="svg11" />
  <defs
     id="defs5">
    <clipPath
       id="_clipPath_HlIqlbYY71bMBw3jTdTCcMbubafJMRka">
      <rect
         width="50"
         height="50"
         id="rect2" />
    </clipPath>
  </defs>
  <g
     clip-path="url(#_clipPath_HlIqlbYY71bMBw3jTdTCcMbubafJMRka)"
     id="g9"
     style="fill:#000000;fill-opacity:1">
    <path
       d="m 25,9.113 c -8.995,0 -16.289,7.293 -16.289,16.291 0,7.196 4.667,13.302 11.141,15.456 0.814,0.149 1.112,-0.354 1.112,-0.785 0,-0.387 -0.014,-1.411 -0.022,-2.771 -4.531,0.984 -5.487,-2.184 -5.487,-2.184 -0.741,-1.882 -1.809,-2.383 -1.809,-2.383 -1.479,-1.011 0.112,-0.99 0.112,-0.99 1.635,0.115 2.495,1.679 2.495,1.679 1.453,2.489 3.813,1.771 4.741,1.354 0.148,-1.053 0.569,-1.771 1.034,-2.178 -3.617,-0.411 -7.42,-1.809 -7.42,-8.051 0,-1.778 0.635,-3.232 1.677,-4.371 -0.167,-0.412 -0.727,-2.068 0.16,-4.311 0,0 1.368,-0.438 4.479,1.67 1.299,-0.361 2.693,-0.542 4.078,-0.548 1.383,0.006 2.777,0.187 4.078,0.548 3.11,-2.108 4.475,-1.67 4.475,-1.67 0.889,2.243 0.33,3.899 0.162,4.311 1.044,1.139 1.674,2.593 1.674,4.371 0,6.258 -3.809,7.635 -7.438,8.038 0.585,0.503 1.106,1.497 1.106,3.017 0,2.178 -0.02,3.935 -0.02,4.469 0,0.436 0.293,0.942 1.12,0.783 6.467,-2.158 11.13,-8.26 11.13,-15.454 C 41.29,16.406 33.996,9.113 25,9.113 Z"
       id="path7"
       inkscape:connector-curvature="0"
       style="fill:#000000;fill-rule:evenodd;fill-opacity:1" />
  </g>
</svg>
