<?xml version="1.0" standalone="no"?><!-- Generator: Gravit.io --><svg xmlns="http://www.w3.org/2000/svg" xmlns:xlink="http://www.w3.org/1999/xlink" style="isolation:isolate" viewBox="0 0 50 50" width="50" height="50"><defs><clipPath id="_clipPath_wCz04zLZkhGAKYgIyLaNqNbq5W57geZx"><rect width="50" height="50"/></clipPath></defs><g clip-path="url(#_clipPath_wCz04zLZkhGAKYgIyLaNqNbq5W57geZx)"><rect x="0" y="0" width="50" height="50" transform="matrix(1,0,0,1,0,0)" fill="rgb(111,147,208)"/><path d=" M 25 9.113 C 16.005 9.113 8.711 16.406 8.711 25.404 C 8.711 32.6 13.378 38.706 19.852 40.86 C 20.666 41.009 20.964 40.506 20.964 40.075 C 20.964 39.688 20.95 38.664 20.942 37.304 C 16.411 38.288 15.455 35.12 15.455 35.12 C 14.714 33.238 13.646 32.737 13.646 32.737 C 12.167 31.726 13.758 31.747 13.758 31.747 C 15.393 31.862 16.253 33.426 16.253 33.426 C 17.706 35.915 20.066 35.197 20.994 34.78 C 21.142 33.727 21.563 33.009 22.028 32.602 C 18.411 32.191 14.608 30.793 14.608 24.551 C 14.608 22.773 15.243 21.319 16.285 20.18 C 16.118 19.768 15.558 18.112 16.445 15.869 C 16.445 15.869 17.813 15.431 20.924 17.539 C 22.223 17.178 23.617 16.997 25.002 16.991 C 26.385 16.997 27.779 17.178 29.08 17.539 C 32.19 15.431 33.555 15.869 33.555 15.869 C 34.444 18.112 33.885 19.768 33.717 20.18 C 34.761 21.319 35.391 22.773 35.391 24.551 C 35.391 30.809 31.582 32.186 27.953 32.589 C 28.538 33.092 29.059 34.086 29.059 35.606 C 29.059 37.784 29.039 39.541 29.039 40.075 C 29.039 40.511 29.332 41.017 30.159 40.858 C 36.626 38.7 41.289 32.598 41.289 25.404 C 41.29 16.406 33.996 9.113 25 9.113 Z " fill-rule="evenodd" fill="rgb(255,255,255)"/></g></svg>