<?xml version="1.0" standalone="no"?><!-- Generator: Gravit.io --><svg xmlns="http://www.w3.org/2000/svg" xmlns:xlink="http://www.w3.org/1999/xlink" style="isolation:isolate" viewBox="0 0 100 50" width="100" height="50"><defs><clipPath id="_clipPath_t24130TLl1VrqrRqLHWV2UiVeuad4vVw"><rect width="100" height="50"/></clipPath></defs><g clip-path="url(#_clipPath_t24130TLl1VrqrRqLHWV2UiVeuad4vVw)"><path d=" M 29.774 26.075 L 29.774 28.262 L 29.774 28.262 Q 29.774 29.117 29.918 29.356 L 29.918 29.356 L 29.918 29.356 Q 30.062 29.594 30.458 29.684 L 30.458 29.684 L 30.458 31.988 L 25.905 31.988 L 25.905 29.684 L 25.905 29.684 Q 26.31 29.594 26.458 29.347 L 26.458 29.347 L 26.458 29.347 Q 26.607 29.099 26.607 28.262 L 26.607 28.262 L 26.607 21.927 L 26.607 21.927 Q 26.607 21.09 26.458 20.842 L 26.458 20.842 L 26.458 20.842 Q 26.31 20.595 25.905 20.505 L 25.905 20.505 L 25.905 18.291 L 30.458 18.291 L 30.458 20.505 L 30.458 20.505 Q 30.071 20.595 29.923 20.838 L 29.923 20.838 L 29.923 20.838 Q 29.774 21.081 29.774 21.927 L 29.774 21.927 L 29.774 23.754 L 32.69 23.754 L 32.69 21.927 L 32.69 21.927 Q 32.69 21.072 32.546 20.833 L 32.546 20.833 L 32.546 20.833 Q 32.402 20.595 32.006 20.505 L 32.006 20.505 L 32.006 18.291 L 36.56 18.291 L 36.56 20.505 L 36.56 20.505 Q 36.164 20.595 36.011 20.847 L 36.011 20.847 L 36.011 20.847 Q 35.858 21.099 35.858 21.927 L 35.858 21.927 L 35.858 28.262 L 35.858 28.262 Q 35.858 29.099 36.007 29.347 L 36.007 29.347 L 36.007 29.347 Q 36.155 29.594 36.56 29.684 L 36.56 29.684 L 36.56 31.988 L 32.006 31.988 L 32.006 29.684 L 32.006 29.684 Q 32.402 29.594 32.546 29.356 L 32.546 29.356 L 32.546 29.356 Q 32.69 29.117 32.69 28.262 L 32.69 28.262 L 32.69 26.075 L 29.774 26.075 L 29.774 26.075 Z  M 43.589 28.415 L 43.589 25.481 L 43.589 25.481 Q 43.589 24.573 43.319 24.181 L 43.319 24.181 L 43.319 24.181 Q 43.049 23.79 42.446 23.79 L 42.446 23.79 L 42.446 23.79 Q 41.834 23.79 41.559 24.186 L 41.559 24.186 L 41.559 24.186 Q 41.285 24.582 41.285 25.481 L 41.285 25.481 L 41.285 28.415 L 41.285 28.415 Q 41.285 29.315 41.555 29.702 L 41.555 29.702 L 41.555 29.702 Q 41.825 30.089 42.446 30.089 L 42.446 30.089 L 42.446 30.089 Q 43.049 30.089 43.319 29.702 L 43.319 29.702 L 43.319 29.702 Q 43.589 29.315 43.589 28.415 L 43.589 28.415 L 43.589 28.415 Z  M 46.477 25.337 L 46.477 25.337 L 46.477 28.577 L 46.477 28.577 Q 46.477 30.467 45.523 31.309 L 45.523 31.309 L 45.523 31.309 Q 44.569 32.15 42.446 32.15 L 42.446 32.15 L 42.446 32.15 Q 40.313 32.15 39.35 31.309 L 39.35 31.309 L 39.35 31.309 Q 38.387 30.467 38.387 28.577 L 38.387 28.577 L 38.387 25.337 L 38.387 25.337 Q 38.387 23.439 39.354 22.588 L 39.354 22.588 L 39.354 22.588 Q 40.322 21.738 42.446 21.738 L 42.446 21.738 L 42.446 21.738 Q 44.569 21.738 45.523 22.588 L 45.523 22.588 L 45.523 22.588 Q 46.477 23.439 46.477 25.337 Z  M 56.359 22.881 L 56.359 22.881 L 56.359 22.881 Q 57.025 22.377 57.754 22.125 L 57.754 22.125 L 57.754 22.125 Q 58.483 21.873 59.239 21.873 L 59.239 21.873 L 59.239 21.873 Q 60.75 21.873 61.421 22.687 L 61.421 22.687 L 61.421 22.687 Q 62.091 23.502 62.091 25.409 L 62.091 25.409 L 62.091 28.559 L 62.091 28.559 Q 62.091 29.369 62.235 29.644 L 62.235 29.644 L 62.235 29.644 Q 62.379 29.918 62.757 29.945 L 62.757 29.945 L 62.757 31.988 L 59.59 31.988 L 59.59 31.988 Q 59.437 31.601 59.374 31.021 L 59.374 31.021 L 59.374 31.021 Q 59.311 30.44 59.311 28.946 L 59.311 28.946 L 59.311 25.796 L 59.311 25.796 Q 59.311 24.78 59.018 24.357 L 59.018 24.357 L 59.018 24.357 Q 58.726 23.934 58.06 23.934 L 58.06 23.934 L 58.06 23.934 Q 57.781 23.934 57.484 24.051 L 57.484 24.051 L 57.484 24.051 Q 57.187 24.168 56.845 24.411 L 56.845 24.411 L 56.845 28.559 L 56.845 28.559 Q 56.845 29.369 56.984 29.639 L 56.984 29.639 L 56.984 29.639 Q 57.124 29.909 57.502 29.945 L 57.502 29.945 L 57.502 31.988 L 54.352 31.988 L 54.352 31.988 Q 54.19 31.574 54.122 30.949 L 54.122 30.949 L 54.122 30.949 Q 54.055 30.323 54.055 28.946 L 54.055 28.946 L 54.055 25.796 L 54.055 25.796 Q 54.055 24.78 53.767 24.357 L 53.767 24.357 L 53.767 24.357 Q 53.479 23.934 52.804 23.934 L 52.804 23.934 L 52.804 23.934 Q 52.516 23.934 52.224 24.051 L 52.224 24.051 L 52.224 24.051 Q 51.931 24.168 51.625 24.411 L 51.625 24.411 L 51.625 28.577 L 51.625 28.577 Q 51.625 29.369 51.756 29.612 L 51.756 29.612 L 51.756 29.612 Q 51.886 29.855 52.237 29.945 L 52.237 29.945 L 52.237 31.988 L 48.232 31.988 L 48.232 29.945 L 48.232 29.945 Q 48.583 29.882 48.714 29.599 L 48.714 29.599 L 48.714 29.599 Q 48.844 29.315 48.844 28.415 L 48.844 28.415 L 48.844 25.112 L 48.844 25.112 Q 48.844 24.483 48.714 24.276 L 48.714 24.276 L 48.714 24.276 Q 48.583 24.069 48.232 23.934 L 48.232 23.934 L 48.232 21.927 L 51.625 21.927 L 51.625 22.548 L 51.625 22.548 Q 52.21 22.215 52.772 22.044 L 52.772 22.044 L 52.772 22.044 Q 53.335 21.873 53.857 21.873 L 53.857 21.873 L 53.857 21.873 Q 54.712 21.873 55.315 22.116 L 55.315 22.116 L 55.315 22.116 Q 55.918 22.359 56.359 22.881 Z  M 67.131 25.481 L 67.131 25.481 L 67.131 25.76 L 69.561 25.76 L 69.561 25.355 L 69.561 25.355 Q 69.561 24.546 69.264 24.168 L 69.264 24.168 L 69.264 24.168 Q 68.967 23.79 68.346 23.79 L 68.346 23.79 L 68.346 23.79 Q 67.707 23.79 67.419 24.19 L 67.419 24.19 L 67.419 24.19 Q 67.131 24.591 67.131 25.481 Z  M 67.131 27.542 L 67.131 28.415 L 67.131 28.415 Q 67.131 29.315 67.415 29.702 L 67.415 29.702 L 67.415 29.702 Q 67.698 30.089 68.346 30.089 L 68.346 30.089 L 68.346 30.089 Q 68.949 30.089 69.255 29.729 L 69.255 29.729 L 69.255 29.729 Q 69.561 29.369 69.561 28.649 L 69.561 28.649 L 69.561 28.595 L 72.342 28.595 L 72.342 30.989 L 72.342 30.989 Q 71.478 31.556 70.452 31.853 L 70.452 31.853 L 70.452 31.853 Q 69.426 32.15 68.346 32.15 L 68.346 32.15 L 68.346 32.15 Q 66.213 32.15 65.25 31.309 L 65.25 31.309 L 65.25 31.309 Q 64.287 30.467 64.287 28.577 L 64.287 28.577 L 64.287 25.337 L 64.287 25.337 Q 64.287 23.439 65.255 22.588 L 65.255 22.588 L 65.255 22.588 Q 66.222 21.738 68.346 21.738 L 68.346 21.738 L 68.346 21.738 Q 70.434 21.738 71.388 22.597 L 71.388 22.597 L 71.388 22.597 Q 72.342 23.457 72.342 25.337 L 72.342 25.337 L 72.342 27.542 L 67.131 27.542 L 67.131 27.542 Z " fill-rule="evenodd" fill="rgb(0,0,0)"/></g></svg>