<?xml version="1.0" encoding="utf-8"?>
<!-- Generator: Adobe Illustrator 15.1.0, SVG Export Plug-In . SVG Version: 6.00 Build 0)  -->
<!DOCTYPE svg PUBLIC "-//W3C//DTD SVG 1.1//EN" "http://www.w3.org/Graphics/SVG/1.1/DTD/svg11.dtd">
<svg version="1.1" id="Layer_1" xmlns="http://www.w3.org/2000/svg" xmlns:xlink="http://www.w3.org/1999/xlink" x="0px" y="0px"
	 width="23.455px" height="18px" viewBox="0 0 23.455 18" enable-background="new 0 0 23.455 18" xml:space="preserve">
<g>
	<g>
		<path fill="#0065A1" d="M16.667,0H1.327C0.595,0,0,0.581,0,1.298v15.403C0,17.418,0.595,18,1.327,18h15.34
			c0.734,0,1.332-0.582,1.332-1.299V1.298C17.999,0.581,17.401,0,16.667,0z"/>
		<path fill="#FFFFFF" d="M2.666,6.748h2.673v8.59H2.666V6.748z M4.004,2.478c0.854,0,1.547,0.694,1.547,1.548
			S4.857,5.575,4.004,5.575c-0.857,0-1.55-0.694-1.55-1.548S3.146,2.478,4.004,2.478"/>
		<path fill="#FFFFFF" d="M7.014,6.748h2.559v1.174h0.037c0.356-0.675,1.227-1.387,2.525-1.387c2.704,0,3.203,1.778,3.203,4.092
			v4.711h-2.669V11.16c0-0.996-0.018-2.277-1.388-2.277c-1.389,0-1.601,1.086-1.601,2.206v4.249H7.014V6.748z"/>
	</g>
	<g>
		<path d="M21.662,13.88c0.379-0.046,0.577-0.255,0.577-0.605c0-0.429-0.259-0.636-0.792-0.636h-0.856v2.25h0.323v-0.979h0.397
			l0.009,0.012l0.617,0.968h0.345l-0.663-1.003L21.662,13.88z M21.289,13.655h-0.375v-0.762h0.475c0.246,0,0.527,0.041,0.527,0.362
			C21.916,13.625,21.633,13.655,21.289,13.655z"/>
		<path d="M21.325,11.638c-1.195,0-2.132,0.936-2.132,2.128c0,1.195,0.937,2.129,2.132,2.129s2.13-0.934,2.13-2.129
			C23.455,12.573,22.521,11.638,21.325,11.638z M21.325,15.616c-1.02,0-1.817-0.805-1.817-1.851c0-1.043,0.798-1.849,1.817-1.849
			s1.818,0.806,1.818,1.849C23.144,14.812,22.345,15.616,21.325,15.616z"/>
	</g>
</g>
</svg>
