<?xml version="1.0" standalone="no"?><!-- Generator: Gravit.io --><svg xmlns="http://www.w3.org/2000/svg" xmlns:xlink="http://www.w3.org/1999/xlink" style="isolation:isolate" viewBox="0 0 50 50" width="50" height="50"><defs><clipPath id="_clipPath_zPhv4802HVUMcYADJWuro5VpxA0198XS"><rect width="50" height="50"/></clipPath></defs><g clip-path="url(#_clipPath_zPhv4802HVUMcYADJWuro5VpxA0198XS)"><rect x="0" y="0" width="50" height="50" transform="matrix(1,0,0,1,0,0)" fill="rgb(129,177,255)"/><g style="isolation:isolate" id="in"><path d=" M 20.722 20.09 L 26.539 20.09 L 26.539 22.759 L 26.623 22.759 C 27.432 21.224 29.412 19.605 32.363 19.605 C 38.51 19.605 39.645 23.647 39.645 28.908 L 39.645 39.617 L 33.577 39.617 L 33.577 30.119 C 33.577 27.855 33.536 24.943 30.422 24.943 C 27.264 24.943 26.782 27.412 26.782 29.958 L 26.782 39.617 L 20.722 39.617 L 20.722 20.09 Z " fill="rgb(255,255,255)"/><path d=" M 10.837 20.09 L 16.914 20.09 L 16.914 39.617 L 10.837 39.617 L 10.837 20.09 Z  M 13.879 10.383 C 15.82 10.383 17.396 11.96 17.396 13.902 C 17.396 15.843 15.818 17.423 13.879 17.423 C 11.931 17.423 10.355 15.845 10.355 13.904 C 10.355 11.963 11.929 10.383 13.879 10.383 Z " fill="rgb(255,255,255)"/></g></g></svg>