<?xml version="1.0" encoding="UTF-8" standalone="no"?>
<!-- Generator: Gravit.io -->

<svg
   xmlns:dc="http://purl.org/dc/elements/1.1/"
   xmlns:cc="http://creativecommons.org/ns#"
   xmlns:rdf="http://www.w3.org/1999/02/22-rdf-syntax-ns#"
   xmlns:svg="http://www.w3.org/2000/svg"
   xmlns="http://www.w3.org/2000/svg"
   xmlns:sodipodi="http://sodipodi.sourceforge.net/DTD/sodipodi-0.dtd"
   xmlns:inkscape="http://www.inkscape.org/namespaces/inkscape"
   style="isolation:isolate"
   viewBox="0 0 50 50"
   width="50"
   height="50"
   version="1.1"
   id="svg14"
   sodipodi:docname="LinkedIn.svg"
   inkscape:version="0.92.5 (2060ec1f9f, 2020-04-08)">
  <metadata
     id="metadata18">
    <rdf:RDF>
      <cc:Work
         rdf:about="">
        <dc:format>image/svg+xml</dc:format>
        <dc:type
           rdf:resource="http://purl.org/dc/dcmitype/StillImage" />
        <dc:title></dc:title>
      </cc:Work>
    </rdf:RDF>
  </metadata>
  <sodipodi:namedview
     pagecolor="#ffffff"
     bordercolor="#666666"
     borderopacity="1"
     objecttolerance="10"
     gridtolerance="10"
     guidetolerance="10"
     inkscape:pageopacity="0"
     inkscape:pageshadow="2"
     inkscape:window-width="828"
     inkscape:window-height="1052"
     id="namedview16"
     showgrid="false"
     inkscape:zoom="4.72"
     inkscape:cx="18.961864"
     inkscape:cy="8.0508475"
     inkscape:window-x="2"
     inkscape:window-y="22"
     inkscape:window-maximized="0"
     inkscape:current-layer="svg14" />
  <defs
     id="defs5">
    <clipPath
       id="_clipPath_rm3uw59WpDVTFI5DFHdfzA7yCMIpCUMz">
      <rect
         width="50"
         height="50"
         id="rect2" />
    </clipPath>
  </defs>
  <g
     clip-path="url(#_clipPath_rm3uw59WpDVTFI5DFHdfzA7yCMIpCUMz)"
     id="g12"
     style="fill:#000000;fill-opacity:1">
    <g
       style="isolation:isolate;fill:#000000;fill-opacity:1"
       id="in">
      <path
         d="m 20.722,20.09 h 5.817 v 2.669 h 0.084 c 0.809,-1.535 2.789,-3.154 5.74,-3.154 6.147,0 7.282,4.042 7.282,9.303 v 10.709 h -6.068 v -9.498 c 0,-2.264 -0.041,-5.176 -3.155,-5.176 -3.158,0 -3.64,2.469 -3.64,5.015 v 9.659 h -6.06 z"
         id="path7"
         inkscape:connector-curvature="0"
         style="fill:#000000;fill-opacity:1" />
      <path
         d="m 10.837,20.09 h 6.077 v 19.527 h -6.077 z m 3.042,-9.707 c 1.941,0 3.517,1.577 3.517,3.519 0,1.941 -1.578,3.521 -3.517,3.521 -1.948,0 -3.524,-1.578 -3.524,-3.519 0,-1.941 1.574,-3.521 3.524,-3.521 z"
         id="path9"
         inkscape:connector-curvature="0"
         style="fill:#000000;fill-opacity:1" />
    </g>
  </g>
</svg>
