<?xml version="1.0" standalone="no"?><!-- Generator: Gravit.io --><svg xmlns="http://www.w3.org/2000/svg" xmlns:xlink="http://www.w3.org/1999/xlink" style="isolation:isolate" viewBox="0 0 100 50" width="100" height="50"><defs><clipPath id="_clipPath_F1hvb0AdJEGEi7xF56OLfuLGX5thhe2p"><rect width="100" height="50"/></clipPath></defs><g clip-path="url(#_clipPath_F1hvb0AdJEGEi7xF56OLfuLGX5thhe2p)"><rect x="0" y="0" width="100" height="50" transform="matrix(1,0,0,1,0,0)" fill="rgb(75,132,223)"/><path d=" M 15.905 37.833 L 15.905 39.615 L 15.905 39.615 Q 15.905 40.254 16.053 40.515 L 16.053 40.515 L 16.053 40.515 Q 16.202 40.776 16.571 40.875 L 16.571 40.875 L 16.571 43.305 L 11.135 43.305 L 11.135 40.875 L 11.135 40.875 Q 11.414 40.731 11.522 40.466 L 11.522 40.466 L 11.522 40.466 Q 11.63 40.2 11.63 39.615 L 11.63 39.615 L 11.63 33.261 L 11.63 33.261 Q 11.63 32.677 11.522 32.416 L 11.522 32.416 L 11.522 32.416 Q 11.414 32.155 11.135 32.011 L 11.135 32.011 L 11.135 29.608 L 21.07 29.608 L 21.07 34.386 L 17.381 34.386 L 17.381 33.981 L 17.381 33.981 Q 17.381 33.126 17.133 32.843 L 17.133 32.843 L 17.133 32.843 Q 16.886 32.56 16.22 32.56 L 16.22 32.56 L 15.905 32.56 L 15.905 35.142 L 18.605 35.142 L 18.605 37.833 L 15.905 37.833 Z  M 26.416 33.243 L 26.416 39.714 L 26.416 39.714 Q 26.416 40.317 26.52 40.614 L 26.52 40.614 L 26.52 40.614 Q 26.623 40.911 26.857 41.037 L 26.857 41.037 L 26.857 43.305 L 22.159 43.305 L 22.159 41.037 L 22.159 41.037 Q 22.411 40.965 22.533 40.655 L 22.533 40.655 L 22.533 40.655 Q 22.654 40.344 22.654 39.768 L 22.654 39.768 L 22.654 36.573 L 22.654 36.573 Q 22.654 36.078 22.546 35.853 L 22.546 35.853 L 22.546 35.853 Q 22.438 35.628 22.159 35.511 L 22.159 35.511 L 22.159 33.243 L 26.416 33.243 Z  M 26.38 31.084 L 26.38 31.084 L 26.38 31.084 Q 26.38 31.75 25.813 32.191 L 25.813 32.191 L 25.813 32.191 Q 25.246 32.632 24.373 32.632 L 24.373 32.632 L 24.373 32.632 Q 23.5 32.632 22.933 32.186 L 22.933 32.186 L 22.933 32.186 Q 22.366 31.741 22.366 31.084 L 22.366 31.084 L 22.366 31.084 Q 22.366 30.427 22.933 29.981 L 22.933 29.981 L 22.933 29.981 Q 23.5 29.536 24.373 29.536 L 24.373 29.536 L 24.373 29.536 Q 25.237 29.536 25.809 29.981 L 25.809 29.981 L 25.809 29.981 Q 26.38 30.427 26.38 31.084 Z  M 37.341 36.744 L 37.341 36.744 L 37.341 39.804 L 37.341 39.804 Q 37.341 41.874 36.369 42.67 L 36.369 42.67 L 36.369 42.67 Q 35.398 43.467 32.869 43.467 L 32.869 43.467 L 32.869 43.467 Q 30.34 43.467 29.372 42.67 L 29.372 42.67 L 29.372 42.67 Q 28.405 41.874 28.405 39.804 L 28.405 39.804 L 28.405 36.744 L 28.405 36.744 Q 28.405 34.674 29.372 33.873 L 29.372 33.873 L 29.372 33.873 Q 30.34 33.072 32.869 33.072 L 32.869 33.072 L 32.869 33.072 Q 35.407 33.072 36.374 33.873 L 36.374 33.873 L 36.374 33.873 Q 37.341 34.674 37.341 36.744 Z  M 33.607 39.966 L 33.607 36.573 L 33.607 36.573 Q 33.607 35.916 33.436 35.655 L 33.436 35.655 L 33.436 35.655 Q 33.265 35.394 32.869 35.394 L 32.869 35.394 L 32.869 35.394 Q 32.473 35.394 32.302 35.664 L 32.302 35.664 L 32.302 35.664 Q 32.131 35.934 32.131 36.573 L 32.131 36.573 L 32.131 39.966 L 32.131 39.966 Q 32.131 40.632 32.297 40.898 L 32.297 40.898 L 32.297 40.898 Q 32.464 41.163 32.869 41.163 L 32.869 41.163 L 32.869 41.163 Q 33.256 41.163 33.431 40.893 L 33.431 40.893 L 33.431 40.893 Q 33.607 40.623 33.607 39.966 L 33.607 39.966 Z  M 43.155 38.4 L 43.155 39.714 L 43.155 39.714 Q 43.155 40.335 43.268 40.637 L 43.268 40.637 L 43.268 40.637 Q 43.38 40.938 43.65 41.037 L 43.65 41.037 L 43.65 43.305 L 38.916 43.305 L 38.916 41.037 L 38.916 41.037 Q 39.168 40.965 39.29 40.655 L 39.29 40.655 L 39.29 40.655 Q 39.411 40.344 39.411 39.768 L 39.411 39.768 L 39.411 36.573 L 39.411 36.573 Q 39.411 36.078 39.303 35.853 L 39.303 35.853 L 39.303 35.853 Q 39.195 35.628 38.916 35.511 L 38.916 35.511 L 38.916 33.243 L 42.93 33.243 L 42.93 34.035 L 42.93 34.035 Q 43.272 33.522 43.673 33.279 L 43.673 33.279 L 43.673 33.279 Q 44.073 33.036 44.577 33.036 L 44.577 33.036 L 44.577 33.036 Q 44.658 33.036 44.784 33.054 L 44.784 33.054 L 44.784 33.054 Q 44.91 33.072 45.036 33.099 L 45.036 33.099 L 45.036 36.501 L 44.631 36.501 L 44.631 36.501 Q 43.884 36.501 43.52 36.969 L 43.52 36.969 L 43.52 36.969 Q 43.155 37.437 43.155 38.4 L 43.155 38.4 Z  M 50.031 36.573 L 50.031 36.573 L 50.031 36.942 L 51.507 36.942 L 51.507 36.573 L 51.507 36.573 Q 51.507 35.916 51.336 35.655 L 51.336 35.655 L 51.336 35.655 Q 51.165 35.394 50.769 35.394 L 50.769 35.394 L 50.769 35.394 Q 50.373 35.394 50.202 35.664 L 50.202 35.664 L 50.202 35.664 Q 50.031 35.934 50.031 36.573 Z  M 50.031 39.03 L 50.031 39.966 L 50.031 39.966 Q 50.031 40.632 50.197 40.898 L 50.197 40.898 L 50.197 40.898 Q 50.364 41.163 50.769 41.163 L 50.769 41.163 L 50.769 41.163 Q 51.156 41.163 51.331 40.893 L 51.331 40.893 L 51.331 40.893 Q 51.507 40.623 51.507 39.966 L 51.507 39.966 L 51.507 39.696 L 55.241 39.696 L 55.241 42.18 L 55.241 42.18 Q 54.503 42.81 53.306 43.138 L 53.306 43.138 L 53.306 43.138 Q 52.109 43.467 50.544 43.467 L 50.544 43.467 L 50.544 43.467 Q 48.213 43.467 47.259 42.648 L 47.259 42.648 L 47.259 42.648 Q 46.305 41.829 46.305 39.804 L 46.305 39.804 L 46.305 36.744 L 46.305 36.744 Q 46.305 34.683 47.272 33.878 L 47.272 33.878 L 47.272 33.878 Q 48.24 33.072 50.769 33.072 L 50.769 33.072 L 50.769 33.072 Q 53.252 33.072 54.247 33.945 L 54.247 33.945 L 54.247 33.945 Q 55.241 34.818 55.241 37.005 L 55.241 37.005 L 55.241 39.03 L 50.031 39.03 Z  M 16.76 20.635 L 14.789 12.473 L 14.789 16.946 L 14.789 16.946 Q 14.789 17.593 14.892 17.845 L 14.892 17.845 L 14.892 17.845 Q 14.996 18.097 15.266 18.205 L 15.266 18.205 L 15.266 20.635 L 11.135 20.635 L 11.135 18.205 L 11.135 18.205 Q 11.414 18.061 11.522 17.796 L 11.522 17.796 L 11.522 17.796 Q 11.63 17.53 11.63 16.946 L 11.63 16.946 L 11.63 10.592 L 11.63 10.592 Q 11.63 10.007 11.522 9.746 L 11.522 9.746 L 11.522 9.746 Q 11.414 9.485 11.135 9.341 L 11.135 9.341 L 11.135 6.938 L 16.76 6.938 L 18.011 12.788 L 19.262 6.938 L 24.778 6.938 L 24.778 9.341 L 24.778 9.341 Q 24.49 9.476 24.373 9.741 L 24.373 9.741 L 24.373 9.741 Q 24.256 10.007 24.256 10.592 L 24.256 10.592 L 24.256 16.946 L 24.256 16.946 Q 24.256 17.539 24.373 17.8 L 24.373 17.8 L 24.373 17.8 Q 24.49 18.061 24.778 18.205 L 24.778 18.205 L 24.778 20.635 L 19.837 20.635 L 19.837 18.205 L 19.837 18.205 Q 20.089 18.097 20.193 17.845 L 20.193 17.845 L 20.193 17.845 Q 20.296 17.593 20.296 16.946 L 20.296 16.946 L 20.296 12.473 L 18.416 20.635 L 16.76 20.635 Z  M 31.564 17.872 L 31.564 17.872 L 31.564 16.289 L 31.564 16.289 Q 30.529 16.703 30.272 16.941 L 30.272 16.941 L 30.272 16.941 Q 30.016 17.179 30.016 17.539 L 30.016 17.539 L 30.016 17.539 Q 30.016 17.89 30.178 18.075 L 30.178 18.075 L 30.178 18.075 Q 30.34 18.259 30.637 18.259 L 30.637 18.259 L 30.637 18.259 Q 30.889 18.259 31.123 18.16 L 31.123 18.16 L 31.123 18.16 Q 31.357 18.061 31.564 17.872 Z  M 35.74 20.635 L 31.726 20.635 L 31.6 19.771 L 31.6 19.771 Q 31.123 20.311 30.511 20.554 L 30.511 20.554 L 30.511 20.554 Q 29.899 20.797 29.017 20.797 L 29.017 20.797 L 29.017 20.797 Q 27.685 20.797 26.952 20.041 L 26.952 20.041 L 26.952 20.041 Q 26.218 19.285 26.218 17.908 L 26.218 17.908 L 26.218 17.908 Q 26.218 15.641 31.312 14.165 L 31.312 14.165 L 31.564 14.093 L 31.564 13.904 L 31.564 13.904 Q 31.564 13.301 31.388 13.013 L 31.388 13.013 L 31.388 13.013 Q 31.213 12.725 30.844 12.725 L 30.844 12.725 L 30.844 12.725 Q 30.475 12.725 30.299 13.013 L 30.299 13.013 L 30.299 13.013 Q 30.124 13.301 30.124 13.904 L 30.124 13.904 L 30.124 14.093 L 26.659 14.093 L 26.659 11.717 L 26.659 11.717 Q 27.478 11.087 28.675 10.736 L 28.675 10.736 L 28.675 10.736 Q 29.872 10.385 31.249 10.385 L 31.249 10.385 L 31.249 10.385 Q 33.346 10.385 34.304 11.267 L 34.304 11.267 L 34.304 11.267 Q 35.263 12.149 35.263 14.093 L 35.263 14.093 L 35.263 17.17 L 35.263 17.17 Q 35.263 17.71 35.375 17.98 L 35.375 17.98 L 35.375 17.98 Q 35.488 18.25 35.74 18.367 L 35.74 18.367 L 35.74 20.635 Z  M 41.382 15.731 L 41.382 17.044 L 41.382 17.044 Q 41.382 17.665 41.495 17.967 L 41.495 17.967 L 41.495 17.967 Q 41.607 18.268 41.877 18.367 L 41.877 18.367 L 41.877 20.635 L 37.143 20.635 L 37.143 18.367 L 37.143 18.367 Q 37.395 18.295 37.517 17.985 L 37.517 17.985 L 37.517 17.985 Q 37.638 17.674 37.638 17.098 L 37.638 17.098 L 37.638 13.904 L 37.638 13.904 Q 37.638 13.409 37.53 13.184 L 37.53 13.184 L 37.53 13.184 Q 37.422 12.959 37.143 12.842 L 37.143 12.842 L 37.143 10.574 L 41.157 10.574 L 41.157 11.366 L 41.157 11.366 Q 41.499 10.853 41.9 10.61 L 41.9 10.61 L 41.9 10.61 Q 42.3 10.367 42.804 10.367 L 42.804 10.367 L 42.804 10.367 Q 42.885 10.367 43.011 10.385 L 43.011 10.385 L 43.011 10.385 Q 43.137 10.403 43.263 10.43 L 43.263 10.43 L 43.263 13.832 L 42.858 13.832 L 42.858 13.832 Q 42.111 13.832 41.747 14.3 L 41.747 14.3 L 41.747 14.3 Q 41.382 14.768 41.382 15.731 L 41.382 15.731 Z  M 49.734 14.39 L 49.734 13.904 L 49.734 13.904 Q 49.734 13.247 49.563 12.986 L 49.563 12.986 L 49.563 12.986 Q 49.392 12.725 48.996 12.725 L 48.996 12.725 L 48.996 12.725 Q 48.6 12.725 48.429 12.995 L 48.429 12.995 L 48.429 12.995 Q 48.258 13.265 48.258 13.904 L 48.258 13.904 L 48.258 17.296 L 48.258 17.296 Q 48.258 17.962 48.424 18.228 L 48.424 18.228 L 48.424 18.228 Q 48.591 18.493 48.996 18.493 L 48.996 18.493 L 48.996 18.493 Q 49.383 18.493 49.558 18.223 L 49.558 18.223 L 49.558 18.223 Q 49.734 17.953 49.734 17.296 L 49.734 17.296 L 49.734 16.397 L 53.198 16.397 L 53.198 19.51 L 53.198 19.51 Q 52.406 20.167 51.309 20.482 L 51.309 20.482 L 51.309 20.482 Q 50.211 20.797 48.753 20.797 L 48.753 20.797 L 48.753 20.797 Q 46.422 20.797 45.477 19.983 L 45.477 19.983 L 45.477 19.983 Q 44.532 19.168 44.532 17.134 L 44.532 17.134 L 44.532 14.075 L 44.532 14.075 Q 44.532 12.068 45.472 11.235 L 45.472 11.235 L 45.472 11.235 Q 46.413 10.403 48.645 10.403 L 48.645 10.403 L 48.645 10.403 Q 49.995 10.403 51.142 10.731 L 51.142 10.731 L 51.142 10.731 Q 52.289 11.06 53.198 11.699 L 53.198 11.699 L 53.198 14.39 L 49.734 14.39 Z  M 58.409 13.904 L 58.409 13.904 L 58.409 14.273 L 59.885 14.273 L 59.885 13.904 L 59.885 13.904 Q 59.885 13.247 59.714 12.986 L 59.714 12.986 L 59.714 12.986 Q 59.543 12.725 59.147 12.725 L 59.147 12.725 L 59.147 12.725 Q 58.751 12.725 58.58 12.995 L 58.58 12.995 L 58.58 12.995 Q 58.409 13.265 58.409 13.904 Z  M 58.409 16.361 L 58.409 17.296 L 58.409 17.296 Q 58.409 17.962 58.576 18.228 L 58.576 18.228 L 58.576 18.228 Q 58.742 18.493 59.147 18.493 L 59.147 18.493 L 59.147 18.493 Q 59.534 18.493 59.71 18.223 L 59.71 18.223 L 59.71 18.223 Q 59.885 17.953 59.885 17.296 L 59.885 17.296 L 59.885 17.026 L 63.62 17.026 L 63.62 19.51 L 63.62 19.51 Q 62.882 20.14 61.685 20.469 L 61.685 20.469 L 61.685 20.469 Q 60.488 20.797 58.922 20.797 L 58.922 20.797 L 58.922 20.797 Q 56.591 20.797 55.637 19.978 L 55.637 19.978 L 55.637 19.978 Q 54.683 19.159 54.683 17.134 L 54.683 17.134 L 54.683 14.075 L 54.683 14.075 Q 54.683 12.014 55.651 11.208 L 55.651 11.208 L 55.651 11.208 Q 56.618 10.403 59.147 10.403 L 59.147 10.403 L 59.147 10.403 Q 61.631 10.403 62.625 11.276 L 62.625 11.276 L 62.625 11.276 Q 63.62 12.149 63.62 14.336 L 63.62 14.336 L 63.62 16.361 L 58.409 16.361 Z  M 65.699 17.098 L 65.699 10.277 L 65.699 10.277 Q 65.699 9.773 65.591 9.552 L 65.591 9.552 L 65.591 9.552 Q 65.483 9.332 65.204 9.206 L 65.204 9.206 L 65.204 6.938 L 69.46 6.938 L 69.46 17.044 L 69.46 17.044 Q 69.46 17.647 69.564 17.944 L 69.564 17.944 L 69.564 17.944 Q 69.667 18.241 69.901 18.367 L 69.901 18.367 L 69.901 20.635 L 65.204 20.635 L 65.204 18.367 L 65.204 18.367 Q 65.456 18.295 65.577 17.985 L 65.577 17.985 L 65.577 17.985 Q 65.699 17.674 65.699 17.098 L 65.699 17.098 Z " fill-rule="evenodd" fill="rgb(255,255,255)" vector-effect="non-scaling-stroke" stroke-width="0.5" stroke="rgb(0,0,0)" stroke-linejoin="miter" stroke-linecap="square" stroke-miterlimit="3"/><line x1="100" y1="8.5" x2="100" y2="41.5" vector-effect="non-scaling-stroke" stroke-width="1" stroke="rgb(0,0,0)" stroke-linejoin="round" stroke-linecap="round" stroke-miterlimit="3"/></g></svg>