<?xml version="1.0" standalone="no"?><!-- Generator: Gravit.io --><svg xmlns="http://www.w3.org/2000/svg" xmlns:xlink="http://www.w3.org/1999/xlink" style="isolation:isolate" viewBox="483.5 273.5 249 182.644" width="249" height="182.644"><path d=" M 509.463 414.347 L 509.463 421.223 L 509.463 421.223 Q 509.463 423.689 510.036 424.696 L 510.036 424.696 L 510.036 424.696 Q 510.609 425.703 512.033 426.085 L 512.033 426.085 L 512.033 435.462 L 491.056 435.462 L 491.056 426.085 L 491.056 426.085 Q 492.133 425.529 492.55 424.505 L 492.55 424.505 L 492.55 424.505 Q 492.966 423.48 492.966 421.223 L 492.966 421.223 L 492.966 396.704 L 492.966 396.704 Q 492.966 394.446 492.55 393.439 L 492.55 393.439 L 492.55 393.439 Q 492.133 392.432 491.056 391.876 L 491.056 391.876 L 491.056 382.604 L 529.398 382.604 L 529.398 401.045 L 515.159 401.045 L 515.159 399.482 L 515.159 399.482 Q 515.159 396.183 514.203 395.089 L 514.203 395.089 L 514.203 395.089 Q 513.248 393.995 510.678 393.995 L 510.678 393.995 L 509.463 393.995 L 509.463 403.962 L 519.882 403.962 L 519.882 414.347 L 509.463 414.347 Z  M 550.027 396.634 L 550.027 421.605 L 550.027 421.605 Q 550.027 423.932 550.426 425.078 L 550.426 425.078 L 550.426 425.078 Q 550.826 426.224 551.729 426.71 L 551.729 426.71 L 551.729 435.462 L 533.6 435.462 L 533.6 426.71 L 533.6 426.71 Q 534.572 426.432 535.041 425.234 L 535.041 425.234 L 535.041 425.234 Q 535.51 424.036 535.51 421.813 L 535.51 421.813 L 535.51 409.484 L 535.51 409.484 Q 535.51 407.574 535.093 406.706 L 535.093 406.706 L 535.093 406.706 Q 534.677 405.838 533.6 405.386 L 533.6 405.386 L 533.6 396.634 L 550.027 396.634 Z  M 549.888 388.299 L 549.888 388.299 L 549.888 388.299 Q 549.888 390.869 547.7 392.571 L 547.7 392.571 L 547.7 392.571 Q 545.512 394.273 542.143 394.273 L 542.143 394.273 L 542.143 394.273 Q 538.775 394.273 536.587 392.554 L 536.587 392.554 L 536.587 392.554 Q 534.399 390.835 534.399 388.299 L 534.399 388.299 L 534.399 388.299 Q 534.399 385.764 536.587 384.045 L 536.587 384.045 L 536.587 384.045 Q 538.775 382.326 542.143 382.326 L 542.143 382.326 L 542.143 382.326 Q 545.477 382.326 547.683 384.045 L 547.683 384.045 L 547.683 384.045 Q 549.888 385.764 549.888 388.299 Z  M 592.189 410.144 L 592.189 410.144 L 592.189 421.952 L 592.189 421.952 Q 592.189 429.94 588.438 433.014 L 588.438 433.014 L 588.438 433.014 Q 584.687 436.087 574.928 436.087 L 574.928 436.087 L 574.928 436.087 Q 565.169 436.087 561.436 433.014 L 561.436 433.014 L 561.436 433.014 Q 557.702 429.94 557.702 421.952 L 557.702 421.952 L 557.702 410.144 L 557.702 410.144 Q 557.702 402.156 561.436 399.066 L 561.436 399.066 L 561.436 399.066 Q 565.169 395.975 574.928 395.975 L 574.928 395.975 L 574.928 395.975 Q 584.722 395.975 588.455 399.066 L 588.455 399.066 L 588.455 399.066 Q 592.189 402.156 592.189 410.144 Z  M 577.776 422.577 L 577.776 409.484 L 577.776 409.484 Q 577.776 406.949 577.116 405.942 L 577.116 405.942 L 577.116 405.942 Q 576.456 404.935 574.928 404.935 L 574.928 404.935 L 574.928 404.935 Q 573.4 404.935 572.74 405.977 L 572.74 405.977 L 572.74 405.977 Q 572.08 407.019 572.08 409.484 L 572.08 409.484 L 572.08 422.577 L 572.08 422.577 Q 572.08 425.147 572.723 426.172 L 572.723 426.172 L 572.723 426.172 Q 573.365 427.196 574.928 427.196 L 574.928 427.196 L 574.928 427.196 Q 576.421 427.196 577.099 426.155 L 577.099 426.155 L 577.099 426.155 Q 577.776 425.113 577.776 422.577 L 577.776 422.577 Z  M 614.624 416.534 L 614.624 421.605 L 614.624 421.605 Q 614.624 424.001 615.058 425.165 L 615.058 425.165 L 615.058 425.165 Q 615.492 426.328 616.534 426.71 L 616.534 426.71 L 616.534 435.462 L 598.266 435.462 L 598.266 426.71 L 598.266 426.71 Q 599.239 426.432 599.708 425.234 L 599.708 425.234 L 599.708 425.234 Q 600.177 424.036 600.177 421.813 L 600.177 421.813 L 600.177 409.484 L 600.177 409.484 Q 600.177 407.574 599.76 406.706 L 599.76 406.706 L 599.76 406.706 Q 599.343 405.838 598.266 405.386 L 598.266 405.386 L 598.266 396.634 L 613.756 396.634 L 613.756 399.691 L 613.756 399.691 Q 615.076 397.711 616.621 396.773 L 616.621 396.773 L 616.621 396.773 Q 618.166 395.836 620.111 395.836 L 620.111 395.836 L 620.111 395.836 Q 620.424 395.836 620.91 395.905 L 620.91 395.905 L 620.91 395.905 Q 621.396 395.975 621.882 396.079 L 621.882 396.079 L 621.882 409.207 L 620.32 409.207 L 620.32 409.207 Q 617.437 409.207 616.031 411.012 L 616.031 411.012 L 616.031 411.012 Q 614.624 412.818 614.624 416.534 L 614.624 416.534 Z  M 641.157 409.484 L 641.157 409.484 L 641.157 410.908 L 646.853 410.908 L 646.853 409.484 L 646.853 409.484 Q 646.853 406.949 646.193 405.942 L 646.193 405.942 L 646.193 405.942 Q 645.533 404.935 644.005 404.935 L 644.005 404.935 L 644.005 404.935 Q 642.477 404.935 641.817 405.977 L 641.817 405.977 L 641.817 405.977 Q 641.157 407.019 641.157 409.484 Z  M 641.157 418.966 L 641.157 422.577 L 641.157 422.577 Q 641.157 425.147 641.8 426.172 L 641.8 426.172 L 641.8 426.172 Q 642.442 427.196 644.005 427.196 L 644.005 427.196 L 644.005 427.196 Q 645.499 427.196 646.176 426.155 L 646.176 426.155 L 646.176 426.155 Q 646.853 425.113 646.853 422.577 L 646.853 422.577 L 646.853 421.536 L 661.266 421.536 L 661.266 431.121 L 661.266 431.121 Q 658.418 433.552 653.799 434.82 L 653.799 434.82 L 653.799 434.82 Q 649.18 436.087 643.137 436.087 L 643.137 436.087 L 643.137 436.087 Q 634.142 436.087 630.461 432.927 L 630.461 432.927 L 630.461 432.927 Q 626.779 429.766 626.779 421.952 L 626.779 421.952 L 626.779 410.144 L 626.779 410.144 Q 626.779 402.191 630.513 399.083 L 630.513 399.083 L 630.513 399.083 Q 634.246 395.975 644.005 395.975 L 644.005 395.975 L 644.005 395.975 Q 653.591 395.975 657.428 399.343 L 657.428 399.343 L 657.428 399.343 Q 661.266 402.712 661.266 411.151 L 661.266 411.151 L 661.266 418.966 L 641.157 418.966 Z  M 512.762 347.978 L 505.156 316.479 L 505.156 333.739 L 505.156 333.739 Q 505.156 336.24 505.556 337.212 L 505.556 337.212 L 505.556 337.212 Q 505.955 338.185 506.997 338.601 L 506.997 338.601 L 506.997 347.978 L 491.056 347.978 L 491.056 338.601 L 491.056 338.601 Q 492.133 338.046 492.55 337.021 L 492.55 337.021 L 492.55 337.021 Q 492.966 335.997 492.966 333.739 L 492.966 333.739 L 492.966 309.22 L 492.966 309.22 Q 492.966 306.963 492.55 305.956 L 492.55 305.956 L 492.55 305.956 Q 492.133 304.948 491.056 304.393 L 491.056 304.393 L 491.056 295.12 L 512.762 295.12 L 517.59 317.694 L 522.417 295.12 L 543.706 295.12 L 543.706 304.393 L 543.706 304.393 Q 542.595 304.914 542.143 305.938 L 542.143 305.938 L 542.143 305.938 Q 541.692 306.963 541.692 309.22 L 541.692 309.22 L 541.692 333.739 L 541.692 333.739 Q 541.692 336.031 542.143 337.038 L 542.143 337.038 L 542.143 337.038 Q 542.595 338.046 543.706 338.601 L 543.706 338.601 L 543.706 347.978 L 524.64 347.978 L 524.64 338.601 L 524.64 338.601 Q 525.612 338.185 526.012 337.212 L 526.012 337.212 L 526.012 337.212 Q 526.411 336.24 526.411 333.739 L 526.411 333.739 L 526.411 316.479 L 519.152 347.978 L 512.762 347.978 Z  M 569.892 337.316 L 569.892 337.316 L 569.892 331.204 L 569.892 331.204 Q 565.898 332.801 564.909 333.722 L 564.909 333.722 L 564.909 333.722 Q 563.919 334.642 563.919 336.031 L 563.919 336.031 L 563.919 336.031 Q 563.919 337.386 564.544 338.098 L 564.544 338.098 L 564.544 338.098 Q 565.169 338.81 566.315 338.81 L 566.315 338.81 L 566.315 338.81 Q 567.288 338.81 568.191 338.428 L 568.191 338.428 L 568.191 338.428 Q 569.094 338.046 569.892 337.316 Z  M 586.007 347.978 L 570.517 347.978 L 570.031 344.644 L 570.031 344.644 Q 568.191 346.728 565.829 347.666 L 565.829 347.666 L 565.829 347.666 Q 563.467 348.603 560.064 348.603 L 560.064 348.603 L 560.064 348.603 Q 554.924 348.603 552.093 345.686 L 552.093 345.686 L 552.093 345.686 Q 549.263 342.769 549.263 337.455 L 549.263 337.455 L 549.263 337.455 Q 549.263 328.703 568.92 323.008 L 568.92 323.008 L 569.892 322.73 L 569.892 322.001 L 569.892 322.001 Q 569.892 319.674 569.215 318.562 L 569.215 318.562 L 569.215 318.562 Q 568.538 317.451 567.114 317.451 L 567.114 317.451 L 567.114 317.451 Q 565.69 317.451 565.013 318.562 L 565.013 318.562 L 565.013 318.562 Q 564.336 319.674 564.336 322.001 L 564.336 322.001 L 564.336 322.73 L 550.965 322.73 L 550.965 313.561 L 550.965 313.561 Q 554.125 311.13 558.744 309.776 L 558.744 309.776 L 558.744 309.776 Q 563.363 308.421 568.677 308.421 L 568.677 308.421 L 568.677 308.421 Q 576.769 308.421 580.467 311.825 L 580.467 311.825 L 580.467 311.825 Q 584.166 315.228 584.166 322.73 L 584.166 322.73 L 584.166 334.607 L 584.166 334.607 Q 584.166 336.691 584.6 337.733 L 584.6 337.733 L 584.6 337.733 Q 585.034 338.775 586.007 339.226 L 586.007 339.226 L 586.007 347.978 Z  M 607.782 329.051 L 607.782 334.121 L 607.782 334.121 Q 607.782 336.518 608.216 337.681 L 608.216 337.681 L 608.216 337.681 Q 608.651 338.844 609.692 339.226 L 609.692 339.226 L 609.692 347.978 L 591.425 347.978 L 591.425 339.226 L 591.425 339.226 Q 592.397 338.949 592.866 337.75 L 592.866 337.75 L 592.866 337.75 Q 593.335 336.552 593.335 334.33 L 593.335 334.33 L 593.335 322.001 L 593.335 322.001 Q 593.335 320.09 592.918 319.222 L 592.918 319.222 L 592.918 319.222 Q 592.501 318.354 591.425 317.903 L 591.425 317.903 L 591.425 309.151 L 606.914 309.151 L 606.914 312.207 L 606.914 312.207 Q 608.234 310.227 609.779 309.29 L 609.779 309.29 L 609.779 309.29 Q 611.325 308.352 613.27 308.352 L 613.27 308.352 L 613.27 308.352 Q 613.582 308.352 614.068 308.421 L 614.068 308.421 L 614.068 308.421 Q 614.555 308.491 615.041 308.595 L 615.041 308.595 L 615.041 321.723 L 613.478 321.723 L 613.478 321.723 Q 610.595 321.723 609.189 323.529 L 609.189 323.529 L 609.189 323.529 Q 607.782 325.335 607.782 329.051 L 607.782 329.051 Z  M 640.011 323.876 L 640.011 322.001 L 640.011 322.001 Q 640.011 319.465 639.351 318.458 L 639.351 318.458 L 639.351 318.458 Q 638.692 317.451 637.164 317.451 L 637.164 317.451 L 637.164 317.451 Q 635.635 317.451 634.976 318.493 L 634.976 318.493 L 634.976 318.493 Q 634.316 319.535 634.316 322.001 L 634.316 322.001 L 634.316 335.094 L 634.316 335.094 Q 634.316 337.664 634.958 338.688 L 634.958 338.688 L 634.958 338.688 Q 635.601 339.713 637.164 339.713 L 637.164 339.713 L 637.164 339.713 Q 638.657 339.713 639.334 338.671 L 639.334 338.671 L 639.334 338.671 Q 640.011 337.629 640.011 335.094 L 640.011 335.094 L 640.011 331.621 L 653.382 331.621 L 653.382 343.637 L 653.382 343.637 Q 650.326 346.172 646.089 347.388 L 646.089 347.388 L 646.089 347.388 Q 641.852 348.603 636.226 348.603 L 636.226 348.603 L 636.226 348.603 Q 627.231 348.603 623.584 345.46 L 623.584 345.46 L 623.584 345.46 Q 619.938 342.317 619.938 334.469 L 619.938 334.469 L 619.938 322.66 L 619.938 322.66 Q 619.938 314.916 623.567 311.703 L 623.567 311.703 L 623.567 311.703 Q 627.196 308.491 635.809 308.491 L 635.809 308.491 L 635.809 308.491 Q 641.018 308.491 645.447 309.758 L 645.447 309.758 L 645.447 309.758 Q 649.875 311.026 653.382 313.492 L 653.382 313.492 L 653.382 323.876 L 640.011 323.876 Z  M 673.491 322.001 L 673.491 322.001 L 673.491 323.425 L 679.186 323.425 L 679.186 322.001 L 679.186 322.001 Q 679.186 319.465 678.526 318.458 L 678.526 318.458 L 678.526 318.458 Q 677.867 317.451 676.338 317.451 L 676.338 317.451 L 676.338 317.451 Q 674.81 317.451 674.151 318.493 L 674.151 318.493 L 674.151 318.493 Q 673.491 319.535 673.491 322.001 Z  M 673.491 331.482 L 673.491 335.094 L 673.491 335.094 Q 673.491 337.664 674.133 338.688 L 674.133 338.688 L 674.133 338.688 Q 674.776 339.713 676.338 339.713 L 676.338 339.713 L 676.338 339.713 Q 677.832 339.713 678.509 338.671 L 678.509 338.671 L 678.509 338.671 Q 679.186 337.629 679.186 335.094 L 679.186 335.094 L 679.186 334.052 L 693.599 334.052 L 693.599 343.637 L 693.599 343.637 Q 690.751 346.068 686.132 347.336 L 686.132 347.336 L 686.132 347.336 Q 681.513 348.603 675.47 348.603 L 675.47 348.603 L 675.47 348.603 Q 666.475 348.603 662.794 345.443 L 662.794 345.443 L 662.794 345.443 Q 659.113 342.283 659.113 334.469 L 659.113 334.469 L 659.113 322.66 L 659.113 322.66 Q 659.113 314.707 662.846 311.599 L 662.846 311.599 L 662.846 311.599 Q 666.579 308.491 676.338 308.491 L 676.338 308.491 L 676.338 308.491 Q 685.924 308.491 689.761 311.86 L 689.761 311.86 L 689.761 311.86 Q 693.599 315.228 693.599 323.668 L 693.599 323.668 L 693.599 331.482 L 673.491 331.482 Z  M 701.622 334.33 L 701.622 308.005 L 701.622 308.005 Q 701.622 306.06 701.205 305.209 L 701.205 305.209 L 701.205 305.209 Q 700.788 304.358 699.711 303.872 L 699.711 303.872 L 699.711 295.12 L 716.139 295.12 L 716.139 334.121 L 716.139 334.121 Q 716.139 336.448 716.538 337.594 L 716.538 337.594 L 716.538 337.594 Q 716.937 338.74 717.84 339.226 L 717.84 339.226 L 717.84 347.978 L 699.711 347.978 L 699.711 339.226 L 699.711 339.226 Q 700.684 338.949 701.153 337.75 L 701.153 337.75 L 701.153 337.75 Q 701.622 336.552 701.622 334.33 L 701.622 334.33 Z " fill-rule="evenodd" fill="rgb(255,255,255)" vector-effect="non-scaling-stroke" stroke-width="1" stroke="rgb(0,0,0)" stroke-linejoin="miter" stroke-linecap="square" stroke-miterlimit="3"/></svg>