<?xml version="1.0" standalone="no"?><!-- Generator: Gravit.io --><svg xmlns="http://www.w3.org/2000/svg" xmlns:xlink="http://www.w3.org/1999/xlink" style="isolation:isolate" viewBox="0 0 100 50" width="100" height="50"><defs><clipPath id="_clipPath_dUqsWLf204SJnMDCFbDL8f4u7TR01AuL"><rect width="100" height="50"/></clipPath></defs><g clip-path="url(#_clipPath_dUqsWLf204SJnMDCFbDL8f4u7TR01AuL)"><rect x="0" y="0" width="100" height="50" transform="matrix(1,0,0,1,0,0)" fill="rgb(129,177,255)"/><line x1="0" y1="8.5" x2="0" y2="41.5" vector-effect="non-scaling-stroke" stroke-width="1" stroke="rgb(0,0,0)" stroke-linejoin="round" stroke-linecap="round" stroke-miterlimit="3"/><line x1="100" y1="8.5" x2="100" y2="41.5" vector-effect="non-scaling-stroke" stroke-width="1" stroke="rgb(0,0,0)" stroke-linejoin="round" stroke-linecap="round" stroke-miterlimit="3"/><path d=" M 17.926 21.207 L 17.926 24.798 L 19.114 24.798 L 19.114 24.798 Q 20.131 24.798 20.468 24.429 L 20.468 24.429 L 20.468 24.429 Q 20.806 24.06 20.806 23.052 L 20.806 23.052 L 20.806 23.052 Q 20.806 21.99 20.455 21.598 L 20.455 21.598 L 20.455 21.598 Q 20.104 21.207 19.132 21.207 L 19.132 21.207 L 17.926 21.207 Z  M 17.926 27.749 L 17.926 28.262 L 17.926 28.262 Q 17.926 29.117 18.07 29.356 L 18.07 29.356 L 18.07 29.356 Q 18.214 29.594 18.61 29.684 L 18.61 29.684 L 18.61 31.988 L 14.056 31.988 L 14.056 29.684 L 14.056 29.684 Q 14.461 29.594 14.61 29.347 L 14.61 29.347 L 14.61 29.347 Q 14.758 29.099 14.758 28.262 L 14.758 28.262 L 14.758 21.927 L 14.758 21.927 Q 14.758 21.09 14.61 20.842 L 14.61 20.842 L 14.61 20.842 Q 14.461 20.595 14.056 20.505 L 14.056 20.505 L 14.056 18.291 L 19.483 18.291 L 19.483 18.291 Q 21.877 18.291 22.907 19.308 L 22.907 19.308 L 22.907 19.308 Q 23.938 20.325 23.938 22.701 L 23.938 22.701 L 23.938 22.701 Q 23.938 25.616 22.966 26.683 L 22.966 26.683 L 22.966 26.683 Q 21.994 27.749 19.483 27.749 L 19.483 27.749 L 17.926 27.749 Z  M 30.534 28.415 L 30.534 25.481 L 30.534 25.481 Q 30.534 24.573 30.264 24.181 L 30.264 24.181 L 30.264 24.181 Q 29.994 23.79 29.391 23.79 L 29.391 23.79 L 29.391 23.79 Q 28.779 23.79 28.505 24.186 L 28.505 24.186 L 28.505 24.186 Q 28.23 24.582 28.23 25.481 L 28.23 25.481 L 28.23 28.415 L 28.23 28.415 Q 28.23 29.315 28.5 29.702 L 28.5 29.702 L 28.5 29.702 Q 28.77 30.089 29.391 30.089 L 29.391 30.089 L 29.391 30.089 Q 29.994 30.089 30.264 29.702 L 30.264 29.702 L 30.264 29.702 Q 30.534 29.315 30.534 28.415 L 30.534 28.415 Z  M 33.423 25.337 L 33.423 25.337 L 33.423 28.577 L 33.423 28.577 Q 33.423 30.467 32.469 31.309 L 32.469 31.309 L 32.469 31.309 Q 31.515 32.15 29.391 32.15 L 29.391 32.15 L 29.391 32.15 Q 27.258 32.15 26.295 31.309 L 26.295 31.309 L 26.295 31.309 Q 25.333 30.467 25.333 28.577 L 25.333 28.577 L 25.333 25.337 L 25.333 25.337 Q 25.333 23.439 26.3 22.588 L 26.3 22.588 L 26.3 22.588 Q 27.267 21.738 29.391 21.738 L 29.391 21.738 L 29.391 21.738 Q 31.515 21.738 32.469 22.588 L 32.469 22.588 L 32.469 22.588 Q 33.423 23.439 33.423 25.337 Z  M 38.589 26.813 L 38.589 28.577 L 38.589 28.577 Q 38.589 29.342 38.724 29.594 L 38.724 29.594 L 38.724 29.594 Q 38.859 29.846 39.219 29.945 L 39.219 29.945 L 39.219 31.988 L 35.16 31.988 L 35.16 29.945 L 35.16 29.945 Q 35.511 29.891 35.65 29.581 L 35.65 29.581 L 35.65 29.581 Q 35.79 29.27 35.79 28.415 L 35.79 28.415 L 35.79 25.22 L 35.79 25.22 Q 35.79 24.528 35.659 24.298 L 35.659 24.298 L 35.659 24.298 Q 35.529 24.069 35.16 23.934 L 35.16 23.934 L 35.16 21.927 L 38.463 21.927 L 38.463 22.755 L 38.463 22.755 Q 38.769 22.323 39.178 22.107 L 39.178 22.107 L 39.178 22.107 Q 39.588 21.891 40.083 21.891 L 40.083 21.891 L 40.083 21.891 Q 40.218 21.891 40.461 21.918 L 40.461 21.918 L 40.461 21.918 Q 40.488 21.927 40.506 21.927 L 40.506 21.927 L 40.506 24.87 L 40.506 24.87 Q 40.47 24.87 40.398 24.861 L 40.398 24.861 L 40.398 24.861 Q 40.146 24.834 40.047 24.834 L 40.047 24.834 L 40.047 24.834 Q 39.282 24.834 38.935 25.306 L 38.935 25.306 L 38.935 25.306 Q 38.589 25.778 38.589 26.813 L 38.589 26.813 Z  M 42.089 20.064 L 44.915 19.2 L 44.915 21.927 L 46.112 21.927 L 46.112 24.141 L 44.915 24.141 L 44.915 28.082 L 44.915 28.082 Q 44.915 29.153 45.145 29.531 L 45.145 29.531 L 45.145 29.531 Q 45.374 29.909 45.977 29.909 L 45.977 29.909 L 46.112 29.909 L 46.112 31.952 L 46.112 31.952 Q 45.743 32.06 45.406 32.114 L 45.406 32.114 L 45.406 32.114 Q 45.068 32.168 44.78 32.168 L 44.78 32.168 L 44.78 32.168 Q 43.331 32.168 42.71 31.345 L 42.71 31.345 L 42.71 31.345 Q 42.089 30.521 42.089 28.298 L 42.089 28.298 L 42.089 24.141 L 41.577 24.141 L 41.577 21.927 L 42.089 21.927 L 42.089 20.064 Z  M 52.025 31.988 L 47.975 31.988 L 47.975 29.945 L 47.975 29.945 Q 48.317 29.837 48.448 29.612 L 48.448 29.612 L 48.448 29.612 Q 48.578 29.387 48.578 28.73 L 48.578 28.73 L 48.578 24.141 L 47.975 24.141 L 47.975 21.927 L 48.578 21.927 L 48.578 21.063 L 48.578 21.063 Q 48.578 19.65 49.321 18.916 L 49.321 18.916 L 49.321 18.916 Q 50.063 18.183 51.476 18.183 L 51.476 18.183 L 51.476 18.183 Q 51.773 18.183 52.097 18.223 L 52.097 18.223 L 52.097 18.223 Q 52.421 18.264 52.763 18.354 L 52.763 18.354 L 52.763 20.361 L 52.637 20.361 L 52.466 20.361 L 52.466 20.361 Q 51.935 20.361 51.669 20.649 L 51.669 20.649 L 51.669 20.649 Q 51.404 20.937 51.404 21.522 L 51.404 21.522 L 51.404 21.927 L 52.565 21.927 L 52.565 24.141 L 51.404 24.141 L 51.404 28.703 L 51.404 28.703 Q 51.404 29.36 51.539 29.608 L 51.539 29.608 L 51.539 29.608 Q 51.674 29.855 52.025 29.945 L 52.025 29.945 L 52.025 31.988 Z  M 59.386 28.415 L 59.386 25.481 L 59.386 25.481 Q 59.386 24.573 59.116 24.181 L 59.116 24.181 L 59.116 24.181 Q 58.846 23.79 58.243 23.79 L 58.243 23.79 L 58.243 23.79 Q 57.632 23.79 57.357 24.186 L 57.357 24.186 L 57.357 24.186 Q 57.083 24.582 57.083 25.481 L 57.083 25.481 L 57.083 28.415 L 57.083 28.415 Q 57.083 29.315 57.353 29.702 L 57.353 29.702 L 57.353 29.702 Q 57.623 30.089 58.243 30.089 L 58.243 30.089 L 58.243 30.089 Q 58.846 30.089 59.116 29.702 L 59.116 29.702 L 59.116 29.702 Q 59.386 29.315 59.386 28.415 L 59.386 28.415 Z  M 62.275 25.337 L 62.275 25.337 L 62.275 28.577 L 62.275 28.577 Q 62.275 30.467 61.321 31.309 L 61.321 31.309 L 61.321 31.309 Q 60.367 32.15 58.243 32.15 L 58.243 32.15 L 58.243 32.15 Q 56.111 32.15 55.148 31.309 L 55.148 31.309 L 55.148 31.309 Q 54.185 30.467 54.185 28.577 L 54.185 28.577 L 54.185 25.337 L 54.185 25.337 Q 54.185 23.439 55.152 22.588 L 55.152 22.588 L 55.152 22.588 Q 56.12 21.738 58.243 21.738 L 58.243 21.738 L 58.243 21.738 Q 60.367 21.738 61.321 22.588 L 61.321 22.588 L 61.321 22.588 Q 62.275 23.439 62.275 25.337 Z  M 64.678 28.415 L 64.678 21.648 L 64.678 21.648 Q 64.678 20.955 64.548 20.725 L 64.548 20.725 L 64.548 20.725 Q 64.417 20.496 64.048 20.361 L 64.048 20.361 L 64.048 18.345 L 67.495 18.345 L 67.495 28.577 L 67.495 28.577 Q 67.495 29.369 67.625 29.612 L 67.625 29.612 L 67.625 29.612 Q 67.756 29.855 68.107 29.945 L 68.107 29.945 L 68.107 31.988 L 64.048 31.988 L 64.048 29.945 L 64.048 29.945 Q 64.399 29.891 64.539 29.581 L 64.539 29.581 L 64.539 29.581 Q 64.678 29.27 64.678 28.415 L 64.678 28.415 Z  M 70.042 19.821 L 70.042 19.821 L 70.042 19.821 Q 70.042 19.164 70.505 18.691 L 70.505 18.691 L 70.505 18.691 Q 70.969 18.219 71.626 18.219 L 71.626 18.219 L 71.626 18.219 Q 72.292 18.219 72.76 18.691 L 72.76 18.691 L 72.76 18.691 Q 73.228 19.164 73.228 19.821 L 73.228 19.821 L 73.228 19.821 Q 73.228 20.478 72.751 20.941 L 72.751 20.941 L 72.751 20.941 Q 72.274 21.405 71.626 21.405 L 71.626 21.405 L 71.626 21.405 Q 70.987 21.405 70.514 20.932 L 70.514 20.932 L 70.514 20.932 Q 70.042 20.46 70.042 19.821 Z  M 73.192 21.927 L 73.192 28.577 L 73.192 28.577 Q 73.192 29.369 73.322 29.612 L 73.322 29.612 L 73.322 29.612 Q 73.453 29.855 73.804 29.945 L 73.804 29.945 L 73.804 31.988 L 69.745 31.988 L 69.745 29.945 L 69.745 29.945 Q 70.096 29.891 70.235 29.581 L 70.235 29.581 L 70.235 29.581 Q 70.375 29.27 70.375 28.415 L 70.375 28.415 L 70.375 25.22 L 70.375 25.22 Q 70.375 24.528 70.244 24.298 L 70.244 24.298 L 70.244 24.298 Q 70.114 24.069 69.745 23.934 L 69.745 23.934 L 69.745 21.927 L 73.192 21.927 Z  M 80.679 28.415 L 80.679 25.481 L 80.679 25.481 Q 80.679 24.573 80.409 24.181 L 80.409 24.181 L 80.409 24.181 Q 80.139 23.79 79.536 23.79 L 79.536 23.79 L 79.536 23.79 Q 78.924 23.79 78.65 24.186 L 78.65 24.186 L 78.65 24.186 Q 78.375 24.582 78.375 25.481 L 78.375 25.481 L 78.375 28.415 L 78.375 28.415 Q 78.375 29.315 78.645 29.702 L 78.645 29.702 L 78.645 29.702 Q 78.915 30.089 79.536 30.089 L 79.536 30.089 L 79.536 30.089 Q 80.139 30.089 80.409 29.702 L 80.409 29.702 L 80.409 29.702 Q 80.679 29.315 80.679 28.415 L 80.679 28.415 Z  M 83.568 25.337 L 83.568 25.337 L 83.568 28.577 L 83.568 28.577 Q 83.568 30.467 82.614 31.309 L 82.614 31.309 L 82.614 31.309 Q 81.66 32.15 79.536 32.15 L 79.536 32.15 L 79.536 32.15 Q 77.403 32.15 76.44 31.309 L 76.44 31.309 L 76.44 31.309 Q 75.477 30.467 75.477 28.577 L 75.477 28.577 L 75.477 25.337 L 75.477 25.337 Q 75.477 23.439 76.445 22.588 L 76.445 22.588 L 76.445 22.588 Q 77.412 21.738 79.536 21.738 L 79.536 21.738 L 79.536 21.738 Q 81.66 21.738 82.614 22.588 L 82.614 22.588 L 82.614 22.588 Q 83.568 23.439 83.568 25.337 Z " fill-rule="evenodd" fill="rgb(0,0,0)"/></g></svg>