<?xml version="1.0" standalone="no"?><!-- Generator: Gravit.io --><svg xmlns="http://www.w3.org/2000/svg" xmlns:xlink="http://www.w3.org/1999/xlink" style="isolation:isolate" viewBox="0 0 100 50" width="100" height="50"><defs><clipPath id="_clipPath_TPaOM0TLYGxIZwvA30dAkYUQSySR37oD"><rect width="100" height="50"/></clipPath></defs><g clip-path="url(#_clipPath_TPaOM0TLYGxIZwvA30dAkYUQSySR37oD)"><rect x="0" y="0" width="100" height="50" transform="matrix(1,0,0,1,0,0)" fill="rgb(111,147,208)"/><path d=" M 20.12 20.856 L 20.12 24.123 L 21.362 24.123 L 21.362 24.123 Q 22.235 24.123 22.635 23.736 L 22.635 23.736 L 22.635 23.736 Q 23.036 23.349 23.036 22.512 L 23.036 22.512 L 23.036 22.512 Q 23.036 21.666 22.635 21.261 L 22.635 21.261 L 22.635 21.261 Q 22.235 20.856 21.398 20.856 L 21.398 20.856 L 20.12 20.856 Z  M 20.12 26.534 L 20.12 28.262 L 20.12 28.262 Q 20.12 29.117 20.264 29.356 L 20.264 29.356 L 20.264 29.356 Q 20.408 29.594 20.804 29.684 L 20.804 29.684 L 20.804 31.988 L 16.25 31.988 L 16.25 29.684 L 16.25 29.684 Q 16.655 29.594 16.804 29.347 L 16.804 29.347 L 16.804 29.347 Q 16.952 29.099 16.952 28.262 L 16.952 28.262 L 16.952 21.927 L 16.952 21.927 Q 16.952 21.09 16.804 20.842 L 16.804 20.842 L 16.804 20.842 Q 16.655 20.595 16.25 20.505 L 16.25 20.505 L 16.25 18.291 L 21.632 18.291 L 21.632 18.291 Q 23.999 18.291 25.074 19.236 L 25.074 19.236 L 25.074 19.236 Q 26.15 20.181 26.15 22.242 L 26.15 22.242 L 26.15 22.242 Q 26.15 23.511 25.619 24.321 L 25.619 24.321 L 25.619 24.321 Q 25.088 25.13 24.071 25.409 L 24.071 25.409 L 24.071 25.409 Q 25.052 25.634 25.434 26.102 L 25.434 26.102 L 25.434 26.102 Q 25.817 26.57 25.817 27.56 L 25.817 27.56 L 25.817 28.298 L 25.817 28.298 Q 25.817 29.063 25.947 29.338 L 25.947 29.338 L 25.947 29.338 Q 26.078 29.612 26.411 29.684 L 26.411 29.684 L 26.411 31.988 L 23.018 31.988 L 23.018 31.988 Q 22.874 31.673 22.806 31.273 L 22.806 31.273 L 22.806 31.273 Q 22.739 30.872 22.739 29.981 L 22.739 29.981 L 22.739 28.226 L 22.739 28.226 Q 22.739 27.209 22.402 26.872 L 22.402 26.872 L 22.402 26.872 Q 22.064 26.534 21.101 26.534 L 21.101 26.534 L 20.12 26.534 Z  M 31.018 25.481 L 31.018 25.481 L 31.018 25.76 L 33.448 25.76 L 33.448 25.355 L 33.448 25.355 Q 33.448 24.546 33.151 24.168 L 33.151 24.168 L 33.151 24.168 Q 32.854 23.79 32.233 23.79 L 32.233 23.79 L 32.233 23.79 Q 31.594 23.79 31.306 24.19 L 31.306 24.19 L 31.306 24.19 Q 31.018 24.591 31.018 25.481 Z  M 31.018 27.542 L 31.018 28.415 L 31.018 28.415 Q 31.018 29.315 31.302 29.702 L 31.302 29.702 L 31.302 29.702 Q 31.585 30.089 32.233 30.089 L 32.233 30.089 L 32.233 30.089 Q 32.836 30.089 33.142 29.729 L 33.142 29.729 L 33.142 29.729 Q 33.448 29.369 33.448 28.649 L 33.448 28.649 L 33.448 28.595 L 36.229 28.595 L 36.229 30.989 L 36.229 30.989 Q 35.365 31.556 34.339 31.853 L 34.339 31.853 L 34.339 31.853 Q 33.313 32.15 32.233 32.15 L 32.233 32.15 L 32.233 32.15 Q 30.101 32.15 29.138 31.309 L 29.138 31.309 L 29.138 31.309 Q 28.175 30.467 28.175 28.577 L 28.175 28.577 L 28.175 25.337 L 28.175 25.337 Q 28.175 23.439 29.142 22.588 L 29.142 22.588 L 29.142 22.588 Q 30.11 21.738 32.233 21.738 L 32.233 21.738 L 32.233 21.738 Q 34.321 21.738 35.275 22.597 L 35.275 22.597 L 35.275 22.597 Q 36.229 23.457 36.229 25.337 L 36.229 25.337 L 36.229 27.542 L 31.018 27.542 Z  M 37.741 31.358 L 37.741 31.358 L 37.741 28.649 L 40.54 28.649 L 40.54 28.649 Q 40.54 29.387 40.787 29.72 L 40.787 29.72 L 40.787 29.72 Q 41.035 30.053 41.575 30.053 L 41.575 30.053 L 41.575 30.053 Q 42.025 30.053 42.286 29.801 L 42.286 29.801 L 42.286 29.801 Q 42.547 29.549 42.547 29.117 L 42.547 29.117 L 42.547 29.117 Q 42.547 28.694 42.268 28.429 L 42.268 28.429 L 42.268 28.429 Q 41.989 28.163 41.305 27.956 L 41.305 27.956 L 41.305 27.956 Q 41.089 27.884 40.675 27.767 L 40.675 27.767 L 40.675 27.767 Q 39.496 27.443 38.92 27.101 L 38.92 27.101 L 38.92 27.101 Q 38.281 26.732 37.993 26.201 L 37.993 26.201 L 37.993 26.201 Q 37.705 25.67 37.705 24.87 L 37.705 24.87 L 37.705 24.87 Q 37.705 23.439 38.758 22.588 L 38.758 22.588 L 38.758 22.588 Q 39.811 21.738 41.593 21.738 L 41.593 21.738 L 41.593 21.738 Q 42.547 21.738 43.514 21.963 L 43.514 21.963 L 43.514 21.963 Q 44.482 22.188 45.409 22.629 L 45.409 22.629 L 45.409 25.166 L 42.79 25.166 L 42.79 25.112 L 42.79 25.112 Q 42.79 24.492 42.52 24.168 L 42.52 24.168 L 42.52 24.168 Q 42.25 23.844 41.719 23.844 L 41.719 23.844 L 41.719 23.844 Q 41.278 23.844 41.021 24.1 L 41.021 24.1 L 41.021 24.1 Q 40.765 24.357 40.765 24.798 L 40.765 24.798 L 40.765 24.798 Q 40.765 25.544 42.493 26.03 L 42.493 26.03 L 42.493 26.03 Q 43.177 26.219 43.564 26.345 L 43.564 26.345 L 43.564 26.345 Q 44.752 26.741 45.229 27.358 L 45.229 27.358 L 45.229 27.358 Q 45.706 27.974 45.706 29.09 L 45.706 29.09 L 45.706 29.09 Q 45.706 30.575 44.77 31.363 L 44.77 31.363 L 44.77 31.363 Q 43.834 32.15 42.07 32.15 L 42.07 32.15 L 42.07 32.15 Q 40.954 32.15 39.887 31.957 L 39.887 31.957 L 39.887 31.957 Q 38.821 31.763 37.741 31.358 Z  M 52.185 21.927 L 55.614 21.927 L 55.614 28.667 L 55.614 28.667 Q 55.614 29.405 55.749 29.63 L 55.749 29.63 L 55.749 29.63 Q 55.884 29.855 56.244 29.981 L 56.244 29.981 L 56.244 31.988 L 52.815 31.988 L 52.815 31.34 L 52.815 31.34 Q 52.221 31.691 51.65 31.867 L 51.65 31.867 L 51.65 31.867 Q 51.078 32.042 50.547 32.042 L 50.547 32.042 L 50.547 32.042 Q 48.918 32.042 48.221 31.241 L 48.221 31.241 L 48.221 31.241 Q 47.523 30.44 47.523 28.487 L 47.523 28.487 L 47.523 25.427 L 47.523 25.427 Q 47.523 24.654 47.42 24.348 L 47.42 24.348 L 47.42 24.348 Q 47.316 24.042 47.064 23.97 L 47.064 23.97 L 47.064 21.927 L 50.052 21.927 L 50.052 21.927 Q 50.214 22.35 50.282 22.971 L 50.282 22.971 L 50.282 22.971 Q 50.349 23.592 50.349 24.951 L 50.349 24.951 L 50.349 28.118 L 50.349 28.118 Q 50.349 29.108 50.642 29.545 L 50.642 29.545 L 50.642 29.545 Q 50.934 29.981 51.582 29.981 L 51.582 29.981 L 51.582 29.981 Q 51.879 29.981 52.185 29.855 L 52.185 29.855 L 52.185 29.855 Q 52.491 29.729 52.815 29.477 L 52.815 29.477 L 52.815 25.337 L 52.815 25.337 Q 52.815 24.573 52.685 24.316 L 52.685 24.316 L 52.685 24.316 Q 52.554 24.06 52.185 23.97 L 52.185 23.97 L 52.185 21.927 Z  M 66.062 22.881 L 66.062 22.881 L 66.062 22.881 Q 66.728 22.377 67.457 22.125 L 67.457 22.125 L 67.457 22.125 Q 68.186 21.873 68.942 21.873 L 68.942 21.873 L 68.942 21.873 Q 70.454 21.873 71.124 22.687 L 71.124 22.687 L 71.124 22.687 Q 71.795 23.502 71.795 25.409 L 71.795 25.409 L 71.795 28.559 L 71.795 28.559 Q 71.795 29.369 71.939 29.644 L 71.939 29.644 L 71.939 29.644 Q 72.083 29.918 72.461 29.945 L 72.461 29.945 L 72.461 31.988 L 69.293 31.988 L 69.293 31.988 Q 69.14 31.601 69.077 31.021 L 69.077 31.021 L 69.077 31.021 Q 69.014 30.44 69.014 28.946 L 69.014 28.946 L 69.014 25.796 L 69.014 25.796 Q 69.014 24.78 68.722 24.357 L 68.722 24.357 L 68.722 24.357 Q 68.429 23.934 67.763 23.934 L 67.763 23.934 L 67.763 23.934 Q 67.484 23.934 67.187 24.051 L 67.187 24.051 L 67.187 24.051 Q 66.89 24.168 66.548 24.411 L 66.548 24.411 L 66.548 28.559 L 66.548 28.559 Q 66.548 29.369 66.688 29.639 L 66.688 29.639 L 66.688 29.639 Q 66.827 29.909 67.205 29.945 L 67.205 29.945 L 67.205 31.988 L 64.055 31.988 L 64.055 31.988 Q 63.893 31.574 63.826 30.949 L 63.826 30.949 L 63.826 30.949 Q 63.758 30.323 63.758 28.946 L 63.758 28.946 L 63.758 25.796 L 63.758 25.796 Q 63.758 24.78 63.47 24.357 L 63.47 24.357 L 63.47 24.357 Q 63.182 23.934 62.508 23.934 L 62.508 23.934 L 62.508 23.934 Q 62.22 23.934 61.927 24.051 L 61.927 24.051 L 61.927 24.051 Q 61.635 24.168 61.329 24.411 L 61.329 24.411 L 61.329 28.577 L 61.329 28.577 Q 61.329 29.369 61.459 29.612 L 61.459 29.612 L 61.459 29.612 Q 61.59 29.855 61.941 29.945 L 61.941 29.945 L 61.941 31.988 L 57.936 31.988 L 57.936 29.945 L 57.936 29.945 Q 58.287 29.882 58.417 29.599 L 58.417 29.599 L 58.417 29.599 Q 58.548 29.315 58.548 28.415 L 58.548 28.415 L 58.548 25.112 L 58.548 25.112 Q 58.548 24.483 58.417 24.276 L 58.417 24.276 L 58.417 24.276 Q 58.287 24.069 57.936 23.934 L 57.936 23.934 L 57.936 21.927 L 61.329 21.927 L 61.329 22.548 L 61.329 22.548 Q 61.914 22.215 62.476 22.044 L 62.476 22.044 L 62.476 22.044 Q 63.038 21.873 63.56 21.873 L 63.56 21.873 L 63.56 21.873 Q 64.415 21.873 65.018 22.116 L 65.018 22.116 L 65.018 22.116 Q 65.621 22.359 66.062 22.881 Z  M 76.835 25.481 L 76.835 25.481 L 76.835 25.76 L 79.264 25.76 L 79.264 25.355 L 79.264 25.355 Q 79.264 24.546 78.967 24.168 L 78.967 24.168 L 78.967 24.168 Q 78.67 23.79 78.05 23.79 L 78.05 23.79 L 78.05 23.79 Q 77.411 23.79 77.123 24.19 L 77.123 24.19 L 77.123 24.19 Q 76.835 24.591 76.835 25.481 Z  M 76.835 27.542 L 76.835 28.415 L 76.835 28.415 Q 76.835 29.315 77.118 29.702 L 77.118 29.702 L 77.118 29.702 Q 77.402 30.089 78.05 30.089 L 78.05 30.089 L 78.05 30.089 Q 78.652 30.089 78.958 29.729 L 78.958 29.729 L 78.958 29.729 Q 79.264 29.369 79.264 28.649 L 79.264 28.649 L 79.264 28.595 L 82.045 28.595 L 82.045 30.989 L 82.045 30.989 Q 81.181 31.556 80.155 31.853 L 80.155 31.853 L 80.155 31.853 Q 79.129 32.15 78.05 32.15 L 78.05 32.15 L 78.05 32.15 Q 75.917 32.15 74.954 31.309 L 74.954 31.309 L 74.954 31.309 Q 73.991 30.467 73.991 28.577 L 73.991 28.577 L 73.991 25.337 L 73.991 25.337 Q 73.991 23.439 74.958 22.588 L 74.958 22.588 L 74.958 22.588 Q 75.926 21.738 78.05 21.738 L 78.05 21.738 L 78.05 21.738 Q 80.137 21.738 81.091 22.597 L 81.091 22.597 L 81.091 22.597 Q 82.045 23.457 82.045 25.337 L 82.045 25.337 L 82.045 27.542 L 76.835 27.542 Z " fill-rule="evenodd" fill="rgb(0,0,0)"/><line x1="0" y1="8.5" x2="0" y2="41.5" vector-effect="non-scaling-stroke" stroke-width="1" stroke="rgb(0,0,0)" stroke-linejoin="round" stroke-linecap="round" stroke-miterlimit="3"/><line x1="100" y1="8.5" x2="100" y2="41.5" vector-effect="non-scaling-stroke" stroke-width="1" stroke="rgb(0,0,0)" stroke-linejoin="round" stroke-linecap="round" stroke-miterlimit="3"/></g></svg>