<?xml version="1.0" standalone="no"?><!-- Generator: Gravit.io --><svg xmlns="http://www.w3.org/2000/svg" xmlns:xlink="http://www.w3.org/1999/xlink" style="isolation:isolate" viewBox="0 0 50 50" width="50" height="50"><defs><clipPath id="_clipPath_BIwL5iQpO3WeH9TYEdyQf9wqL7gyDm0c"><rect width="50" height="50"/></clipPath></defs><g clip-path="url(#_clipPath_BIwL5iQpO3WeH9TYEdyQf9wqL7gyDm0c)"><rect x="0" y="0" width="50" height="50" transform="matrix(1,0,0,1,0,0)" fill="rgb(129,177,255)"/><path d=" M 19.194 37.7 C 30.981 37.7 37.431 27.925 37.431 19.463 C 37.431 19.188 37.431 18.913 37.419 18.638 C 38.669 17.738 39.756 16.6 40.619 15.313 C 39.469 15.825 38.231 16.163 36.931 16.325 C 38.256 15.538 39.269 14.275 39.756 12.775 C 38.519 13.513 37.144 14.038 35.681 14.325 C 34.506 13.075 32.844 12.3 31.006 12.3 C 27.469 12.3 24.594 15.175 24.594 18.713 C 24.594 19.213 24.656 19.7 24.756 20.175 C 19.431 19.913 14.706 17.35 11.544 13.475 C 10.994 14.425 10.681 15.525 10.681 16.7 C 10.681 18.925 11.819 20.888 13.531 22.038 C 12.481 22 11.494 21.713 10.631 21.238 C 10.631 21.263 10.631 21.288 10.631 21.325 C 10.631 24.425 12.844 27.025 15.769 27.612 C 15.231 27.762 14.669 27.838 14.081 27.838 C 13.669 27.838 13.269 27.8 12.881 27.725 C 13.694 30.275 16.069 32.125 18.869 32.175 C 16.669 33.9 13.906 34.925 10.906 34.925 C 10.394 34.925 9.881 34.9 9.381 34.838 C 12.206 36.638 15.581 37.7 19.194 37.7 Z " fill="rgb(255,255,255)"/></g></svg>