<?xml version="1.0" standalone="no"?><!-- Generator: Gravit.io --><svg xmlns="http://www.w3.org/2000/svg" xmlns:xlink="http://www.w3.org/1999/xlink" style="isolation:isolate" viewBox="0 0 50 50" width="50" height="50"><defs><clipPath id="_clipPath_5SQz84WCd4S8bqCLuBMHOJpokT9tAhGd"><rect width="50" height="50"/></clipPath></defs><g clip-path="url(#_clipPath_5SQz84WCd4S8bqCLuBMHOJpokT9tAhGd)"><rect x="0" y="0" width="50" height="50" transform="matrix(1,0,0,1,0,0)" fill="rgb(111,147,208)"/><path d=" M 19.194 37.7 C 30.981 37.7 37.431 27.925 37.431 19.462 C 37.431 19.187 37.431 18.912 37.419 18.638 C 38.669 17.737 39.756 16.6 40.619 15.312 C 39.469 15.825 38.231 16.162 36.931 16.325 C 38.256 15.537 39.269 14.275 39.756 12.775 C 38.519 13.512 37.144 14.037 35.681 14.325 C 34.506 13.075 32.844 12.3 31.006 12.3 C 27.469 12.3 24.594 15.175 24.594 18.712 C 24.594 19.212 24.656 19.7 24.756 20.175 C 19.431 19.912 14.706 17.35 11.544 13.475 C 10.994 14.425 10.681 15.525 10.681 16.7 C 10.681 18.925 11.819 20.888 13.531 22.037 C 12.481 22 11.494 21.712 10.631 21.237 C 10.631 21.263 10.631 21.287 10.631 21.325 C 10.631 24.425 12.844 27.025 15.769 27.612 C 15.231 27.763 14.669 27.837 14.081 27.837 C 13.669 27.837 13.269 27.8 12.881 27.725 C 13.694 30.275 16.069 32.125 18.869 32.175 C 16.669 33.9 13.906 34.925 10.906 34.925 C 10.394 34.925 9.881 34.9 9.381 34.838 C 12.206 36.638 15.581 37.7 19.194 37.7 Z " fill="rgb(255,255,255)"/></g></svg>